<svg height="150" version="1.0" viewBox="0 0 150 150" width="150" xmlns="http://www.w3.org/2000/svg"><path d="M83.587 143.574c-4.62-.017-7.193-3.79-10.899-5.72-3.29.137-5.94-1.993-7.444-4.086-1.375-4.217-5.325-7.929-9.517-4.144-3.127 1.688-7.094.942-10.13.16.844-.689 3.173-2.547 3.7-.99 1.303-.069 8.203-1.179 5.93-2.44-2.612-.11-5.624-.903-7.344 1.633-2.683 1.969-2.602-3.536-5.466-3.893-1.718-2.644 3.143-.432 3.46-1.59 2.093 1.89 4.846 1.951 7.506 1.627 1.51.757 1.308-3.207 4.054-3.047-.836-2.407-3.162-5.226-5.01-7.955-4.026-5.542-7.961-11.13-11.35-17.085-2.715-1.135-8.574-.128-9.64-2.18 7.937.72 15.8 2.903 23.795 2.577 2.779-.861 8.878.142 6.187-4.499-1.137-5.817-2.921-11.541-3.786-17.386-.247-4.206 3.242-7.608 7.064-8.692 1.27-2.164-1.374-7.6 1.293-8 1.567.537.586 1.497-.128 1.856.44 1.731-1.912 7.09 1.325 5.644 1.737-.318-.118-4.508 1.176-3.043 1.313-.752-2.187-3.01-.206-3.697-1.206-.836 2.557-2.961.86-4.28-3.79 1.22-2.137-.455.193-.943-.342-2.605 1.223-5.02.777-7.853.764-.335 2.612 3.884 5.09 2.946 1.558 3.826.954 8.221 2.53 12.01 2.665 1.92 3.611 5.232 1.558 7.612 2.24 1.857 3.513-.21 1.342-1.882 1.035-1.99 4.76 1.019 5.62 2.61.992 1.43 2.443 3.075 4.035 3.423 1.31 2.715 4.745 2.397 7.265 2.147 1.99-1.06.428 2.319 3.42 1.22 2.953-.825 8.014-.273 9.28-3.25 1.085-2.065.693 4.159-1.98 3.378-3.683 2.314-8.176-.395-12.09.922-1.976 1.216-4.946-2.316-7.682-2.092-1.807-3.02-5.806-2.977-8.528-4.578-2.073-2.676-4.978-2.804-8.163-3.743-4.435-.493-9.494.425-12.135 4.421-2.56 4.174.486 8.945 1.003 13.3 2.552 12.186 6.036 24.327 6.396 36.84-.421 4.368-.54 8.832 1.528 12.851-.755 2.894-2.513-4.125-2.563-5.618.165-5.505.513-11.044-.653-16.486-.382-3.84-1.317-7.537-2.793-10.995-.312-2.973-2.137-5.174-5.339-3.585-4.453.956-9.05-.103-13.511-.56-2.637.25 2.891 5.448 3.503 7.644 4.562 6.46 9.31 12.81 13.707 19.331 2.386 4.185 3.398 9.805 7.96 12.24 2.591 1.443 6.503-.25 8.38 1.67 1.08 1.302 2.482 2.594 3.27 4.45 2.393 1.837 6.261-.007 9.13-.22 3.15-1.136 2.39-7.436 2.25-8.52-.126-5.999.022-12.22-2.61-17.78-1.175-1.258-2.64-7.167-.13-4.57-1.59 1.18 1.828 2.119.41.162 1.433-.112 1.063 3.753 2.83 2.078 1.177-1.75 1.98-3.301 2.43-5.277 2.099-4.866.56 2.197-.75 3.747-2.096 3.874-3.717 7.69-2.06 12.05.253 4.862.323 9.756.436 14.638.224 4.334-4.582 4.989-7.956 5.559l-.85-.077zm-4.86-1.53c-2.096-.96 1.55.943 0 0zm12.86-1.05c.369-1.023-1.272 1.426 0 0zm-35.9-17.59c-.067-.48-.274.653 0 0zm19.44-68c-.588-.503-.36 1.374 0 0zm-.56-1.44c1.14-2.887-1.13 1.656 0 0z"/><path d="M111.577 138.254c-3.075-.403-5.882-2.717-7.011-5.65-1.024-2.567-1.962-5.176-3.157-7.669-.517-1.49-.603-5.486-.962-7.92-.39-2.97-.516-5.964-1.03-8.92-.257-2.847-.403-5.72-.696-8.547-1.158-.267-1.853 1.575-1.185-.689.783-3.164 1.454-6.486 3.058-9.356.377-.713 1.247-3.19 2.715-2.287-.596 1.174-.723 2.234.528.888-1.415-1.816 1.561.628.98-.34.388-.513 1.37.759 2.33-.35 2.18.588 4.758-.66 1.91-2.02-1.208-1.242-4.118-.05-5.585.64-1.539.984-3.7 3.206-5.215 2.79.47-1.011 2.717-1.735.279-2.07-1.646-1.278-3.714.217-3.959-1.57-1.406.375.071 3.09-2.48 3.03-2.297.08-3.298 3.24-.47 3.03 1.8-.073 4.892-2.814 5.86-1.35-1.925 1.492-5.704.762-6.206 3.584-1.645 3.387-3.213 6.896-5.554 9.844 1.518.566-1.932 1.437-.06 2.152-1.408.99-2.428-3.065-3.294-4.28-2.036-3.808-3.506-7.87-5.062-11.9-1.54-3.698-1.739-7.92-3.954-11.327.473-1.07-2.19-4.852-.33-3.683.781 1.348.941 3.89 2.43 4.33 1.185.149 2.569-1.063 2.943.804 1.655-.3 5.97 1.75 3.555-1.476-1.053-1.384-.39-4.728.578-1.626 2.44 1.65 5.881.831 8.6 2.21 1.513-.224 3.262 1.197.937 1.01-2.74-.406-5.506-.777-8.284-.864-1.46.113 2.897 3.397 3.081 1.192 1.742 2.164 4.737 2.704 7.06 4.16 2.661 1.038 5.528 1.866 8.426 1.64 1.54-1.75 3.709-.793 5.622-1.973 2.195.008 4.532-1.233 6.512-.977 1.712.346 4.579-4.71 3.96-1.25.823-1.358 4.535-2.732 2.04-.42-.851 1.727-3.138 2.789-2.248 4.78 1.974 1.003 3.533.244 5.248-.32 1.193.359 1.457.622 1.83-.86 3.024-1.062 2.772-4.592 3.087-7.225 1.38-2.683.163 2.724.294 3.641 1.384 2.486 1.077 4.813-.478 7.174-.46 3.05-1.735 5.976-1.417 9.12.26 4.045.17 8.122.084 12.17-.865 2.897-1.334 5.83-2.032 8.762-.247 3.259-2.165 6.057-2.85 9.22-.386 3.191-2.806 5.276-4.538 7.738-.54 1.095-2.764 3.919-3.41 2.56 1.823-1.106 2.387-3.13 2.238-5.06.273-2.412 1.96-4.193 1.908-6.707 1.02-1.297.988-3.41 2.32-4.084 1.137-1.11 2.214-2.66 3.225-4.16-.14-.69-2.926 2.951-2.3.571 1.834-.986 1.208-4.068 2.312-5.89.164-2.677.825-4.9 1.263-7.488-.51-2.228 1.069-3.818.324-5.612.61-1.562.206-2.516.386-3.857.322-1.764.45-3.864.214-5.263.94-2.57-3.559-1.474-5.077-1.778-.9-.432-1.83-.196-3.41-.483-1.127 2.596-1 5.935-1.943 8.771-.91 1.984-1.108 4.162-1.95 6.2-.286 2.283-1.618 4.264-1.836 6.518-1.16 1.47-1.695 3.936-2.074 5.775-.849 1.535-1.291 3.188-1.87 4.947-.44 1.879-.89 4.057-1.017 6.148.05 1.43-.01 3.53.847 4.755.235 1.65.684 3.173 2.006 4.269.43 2.048 3.09 2.573 4.063 2.986-.684.197-1.447.07-2.109-.108zm-10.38-15.44c-.138.208.136.987 0 0zm-1.17-11.3c-.14.18.138.907 0 0zM44.287 129.664c-.26-.12-.48-.25-.48-.31 0-.05.22-.09.5-.09h.5v.31c0 .17-.01.31-.02.31-.02 0-.24-.1-.5-.22zM40.207 128.814c-.17-.09-.46-.22-.63-.28-.17-.06-.54-.31-.82-.57-.3-.28-.68-.52-.96-.63-.26-.09-.86-.36-1.33-.6-.48-.24-.93-.44-1-.44-.07 0-.28-.06-.46-.14-1.16-.51-2.26-.93-2.92-1.12-.31-.09-.9-.29-1.31-.44-.61-.22-.99-.29-1.98-.37-1.54-.12-1.43-.12-1.49.08-.05.15-.86.73-1.03.73-.05 0-.13.05-.18.13-.09.11-.04.14.31.2.23.04.82.04 1.29.01.48-.04 1.01-.03 1.18.02.46.1 1.16.64 1.16.89.01.11-.01.2-.03.2-.02 0-.29-.12-.6-.26-.74-.34-1.63-.46-3.46-.45-1.09.01-1.56-.02-1.93-.14-.27-.08-.81-.14-1.2-.14h-.7v-.75l.76.06c.66.05.82.04 1.18-.12.23-.11.46-.19.5-.19.05 0 .28-.14.51-.31.22-.16.55-.37.71-.45.24-.13.29-.2.29-.48v-.32l1.32.05c2.09.08 4.2.5 5.7 1.14.37.15.8.31.94.35.15.04.35.12.45.16.34.18 1.33.57 1.37.53.02-.02-.1-.12-.26-.22s-.38-.26-.48-.35c-.64-.58-2.06-1.54-2.77-1.87-.47-.21-.99-.51-1.17-.67-.4-.35-1.66-.94-2.3-1.08-.69-.14-2.46-.13-2.87.03-.19.07-.58.2-.86.28l-.51.14.15.22c.09.12.19.22.23.22.04 0 .06.16.06.35 0 .31-.04.38-.33.56-.19.11-.5.34-.7.5-.98.83-1.4 1.11-1.66 1.11-.27 0-.27 0-.27-.52 0-.38.08-.71.3-1.23l.3-.72.66-.22c.55-.19.63-.24.51-.33-.09-.06-.14-.23-.14-.46 0-.31.04-.38.25-.48.5-.23 1.25-.47 1.73-.54.27-.05.86-.14 1.3-.22 1.35-.25 2.19-.08 3.12.64.56.43.79.5.79.22 0-.31.52-.24.88.13.15.16.29.37.29.45 0 .08.09.18.21.22.11.05.36.22.56.41.2.18.54.43.76.55.21.13.61.41.9.62.74.59 2.09 1.58 2.14 1.58.02 0 .75.71 1.62 1.58 1.26 1.26 1.68 1.62 2.13 1.85.31.14.6.27.66.27.18 0 .57.38.57.55 0 .14-.06.17-.38.17-.22 0-.47.02-.57.05-.1.03-.32-.04-.5-.14z"/><path d="M35.407 128.094c-.14-.05-.73-.11-1.3-.14-1.43-.08-1.95-.19-2.54-.55-.28-.17-.54-.31-.58-.31-.16-.01-.51-.35-.45-.45.07-.11.89-.12 1.11-.01.08.05.6.17 1.14.28.55.11 1.46.31 2.03.46.57.14 1.16.26 1.32.26.44 0 .41.3-.05.43-.19.06-.36.11-.38.1-.02 0-.15-.05-.29-.08zM22.267 119.834c-.24-.27-.2-.84.1-1.24.14-.19.32-.53.41-.76.18-.47.39-.64 1-.86.25-.08.67-.25.94-.39.3-.14.69-.25 1.02-.27l.53-.05-.03.34-.03.33-.87.3c-1.08.37-1.06.36-1.06.68 0 .15-.14.47-.35.78-.19.28-.45.68-.58.9-.21.34-.27.38-.58.38-.22 0-.4-.06-.49-.16zM26.257 118.114c0-.25.08-.52.23-.78.21-.34.27-.4.54-.4.44 0 .67.26.67.76s-.24.68-.95.75l-.49.04zM87.007 109.644c-.07-.05-.21-.1-.29-.13-.22-.06-.23-.86-.03-.86.07 0 .14-.08.14-.18 0-.15.06-.18.36-.18.26 0 .36.04.36.14 0 .07.05.14.1.14.2 0 .53.49.53.77 0 .25-.04.29-.33.34-.45.07-.68.06-.84-.04zM85.977 108.244c-.03-.08-.05-.26-.05-.41 0-.26.01-.27.39-.24.38.03.38.03.41.41l.03.38h-.35c-.24 0-.38-.05-.41-.14zM104.827 86.834c0-.3.02-.31.31-.31.3 0 .31.02.31.31 0 .3-.02.31-.31.31-.3 0-.31-.02-.31-.31zM31.077 85.764c-.14-.17-.23-.37-.23-.45 0-.1-.07-.15-.22-.15-.19 0-.22-.05-.22-.28 0-.26.02-.27.16-.16.08.07.21.2.27.29.06.08.23.15.38.15.14 0 .29.05.31.1.08.12.31-.31.31-.58 0-.34.11-.59.24-.59.12 0 .14.13.07.93-.04.5-.08.94-.11.99-.02.04-.2.06-.39.06-.29 0-.39-.05-.58-.3zM28.687 83.684c0-.16.04-.21.16-.17.09.02.21.12.27.22.1.15.08.17-.16.17-.22 0-.27-.04-.27-.22zM99.477 82.264c-.03-.12-.05-.31-.05-.45 0-.22.04-.25.28-.25.36 0 .53.18.53.58 0 .31-.01.32-.35.32-.29 0-.36-.04-.41-.2zM97.527 81.454c0-.16-.03-.24-.05-.18-.02.05-.18.11-.35.11-.27 0-.31-.03-.31-.24 0-.36-.31-.48-1.08-.41-.58.05-.65.04-1-.21-.21-.14-.49-.32-.61-.41-.18-.11-.24-.22-.26-.51l-.03-.38h.81c.74 0 .82.02.82.16 0 .16.1.16 1.88.13 2.26-.05 2.35-.04 2.35.38 0 .19-.05.32-.14.36-.11.04-.13.14-.08.55l.06.5h-.36c-.24 0-.41-.05-.52-.18-.09-.1-.19-.18-.22-.18-.04 0-.12.18-.18.41-.11.38-.14.41-.42.41-.29 0-.31-.02-.31-.29zM91.777 80.484c0-.35.01-.36.31-.36.31 0 .31.01.31.36s-.01.36-.31.36c-.31 0-.31-.01-.31-.36zM22.417 80.334c-.29-.04-.3-.05-.3-.44v-.4h.35c.2 0 .41.06.49.14.07.07.3.18.5.24.29.09.37.16.37.31 0 .2-.04.21-.56.19-.31 0-.7-.03-.86-.05zM76.927 77.604v-.45h.62v.9h-.62zM75.397 76.974v-.63h.62v1.26h-.62zM128.467 75.654c-.04-.34-.06-.85-.06-1.13 0-.4-.04-.52-.13-.52-.11 0-.14-.14-.13-.6.01-.34-.04-.7-.09-.81-.11-.2-.15-.84-.05-.84.06 0 .4.4.55.67.06.11.11.31.12.46 0 .15.06.5.14.76.08.27.17.97.21 1.56l.05 1.05h-.28c-.28 0-.28 0-.33-.6zM99.157 73.414c0-.31.01-.31.36-.31s.36.01.36.31c0 .31-.01.31-.36.31s-.36-.01-.36-.31zM100.597 73.234c.136-1.763 2.195-2.508 2.61-4.4-1.471-.713.855-.185.91-1.67.931-1.156 2.532-1.823 3.07-3.27 1.463-1.274 1.454-2.81 1.94-3.87.959-1.174 2.077-2.662 2.62-4.46.855-2.274 1.064-4.74 1.405-7.156-1.342-.979-2.414 2.593-4.475 2.646-2.396 1.303-4.694-.483-6.935-1.083-.018.085-1.215 1.367-1.076-.46-.158-1.5-.451-4.013 1.801-3.842 1.24-1.368 3.788-1.021 5.39-2.075 1.723-.457 3.917-.376 5.22-1.16-.935-.842-.552-2.958-2.665-2.753.335-1.12 1.703-2.241 1.313-3.975-1.555-.827.18-.943.382-1.124-.97-.476 1.971-1.64.75-2.568.016-1.113 1.288-1.86-.22-3.05.004-2.5-3.789-.91-5.14-2.2-2.076-.229-3.552 1.48-5 .17-.898-1.277-2.137-1.8-3.81-1.89-1.698.583-3.52-.509-5.277-.145-1.872-.182-3.782-1.1-5.793-1.615-2.112-1.36-4.015-.323-6.203-1.178-1.622.351 1.341.04-.173 1.532-.199 1.199-1.267 1.341-.44 2.284-1.412-.394.669 3.017-.854 4.062.26 1.89-.923.88-1.71 1.29 1.69 1.31.398 2.37-1.61 1.95-1.207 1.356-.683 4.067-1.82 5.52-1.43 1.392-.53 4.368-.332 6.217-1.476-.328-1.785-2.69-3.468-3.437-1.59-1.974 1.38-2.932 1.504-3.835-.351-3.877-2.783 3.929-2.404.185.388-1.426.245-3.247-.04-.75-.391 3.955-1.803-1.97-2.21-3.24-1.117-2.051 1.658-6.238.444-6.681.424-2.738.98-5.989 2.793-8.16 2.066-2.28 1.904-5.956 4.67-7.811 2.296-2.118 5.005-3.743 7.804-5.108 2.57-1.333 5.326-2.047 8.23-1.986 2.963-.377 5.92-1.122 8.84-.044 2.746.72 5.513 1.505 7.683 3.47 2.788 1.277 5.126 3.316 6.528 6.085 3.099 4.683 3.349 10.57 2.988 16.005-.232 3.17-1.4 6.176-1.61 9.365.764 3.361-2.332 5.673-2.166 8.946-.025 3.443-.49 7.023.732 10.32.293 3.062-.295 7.351 2.977 8.947.94.28 6.981.393 3.407.822-2.276.466-4.277-.409-6.42.95-.87 1.975-3.635 1.018-5 2.3-1.454.776-4.242.978-6.13 1.31-1.027-.276-2.289 1.28-3.03.62zm7.47-5.15c1.66-1.343-1.98-2.062-1.74.11.58.017 1.195-.053 1.74-.11zm-34.02-29.8c-.41-.523-.503.237 0 0zm-3.57-4.11c.363-.962-.72 0 0 0zm30.12-9.86c.688-1.486-1.699-1.144-.2-.02-.07.322.21.588.2.02zM127.507 71.264c0-.39.13-.41.31-.05.18.34.17.36-.09.36-.2 0-.22-.04-.22-.31zM127.007 70.554c-.1-.16-.27-.32-.38-.38a.71.71 0 01-.29-.28c-.05-.11-.25-.31-.45-.45-.23-.17-.37-.33-.37-.46 0-.18.03-.19.26-.11.14.05.47.27.73.5.25.22.54.45.62.51.09.05.2.23.25.38.05.15.13.34.16.43.05.12.02.15-.14.15-.14-.01-.28-.11-.4-.3z"/><path d="M96.227 69.334c-.05-.05-.41-.13-.8-.18-.77-.11-.94-.23-.95-.67 0-.31.16-.49.5-.53.18-.03.08-.05-.3-.11-.46-.05-.57-.1-.57-.23 0-.17-.24-.27-.69-.27-.28 0-.3-.02-.3-.32v-.33l.48.05c.25.03.41.03.36.01-.06-.03-.12-.1-.12-.16 0-.07-.13-.14-.29-.17-.16-.03-.57-.09-.89-.14-.32-.05-.8-.09-1.05-.09-.29 0-.5-.05-.59-.14-.07-.07-.17-.14-.22-.14-.05 0-.33-.15-.63-.35-.51-.32-.6-.35-1.6-.45-1.75-.17-1.65-.14-1.65-.54v-.35l.66-.14c.89-.2 2.4-.3 2.4-.16 0 .05.07.1.17.1.09 0 .39.1.65.22.66.28 1.11.32 3.73.36 1.24.02 2.35.07 2.47.12.13.05.31.06.41.03.3-.12 2.17-.28 3.1-.28 1.22.01 1.46-.05 1.9-.45.36-.33.41-.35.95-.35.31 0 .72.06.9.14.17.07.44.14.58.14h.27l-.06.6c-.08.8-.25.95-.96.89-.41-.05-.53-.02-.59.1-.06.11-.17.14-.46.09-.51-.06-1.36.38-1.36.71 0 .13-.16.42-.36.68-.2.25-.36.5-.36.54 0 .05-.08.08-.18.08-.1 0-.18.06-.18.14 0 .15-.45.41-.72.41-.1 0-.18.06-.18.14 0 .08-.08.14-.22.14-.17 0-.22.05-.22.21 0 .16-.09.22-.53.35-.29.09-.76.19-1.03.22-.28.04-.5.1-.5.14 0 .11-.84.11-.94 0zm2.34-2.35c.17 0 .31.05.31.09 0 .05.07.09.15.09.14 0 .14-.02-.03-.13-.23-.17-.85-.29-.85-.16 0 .05-.03.17-.05.26-.05.15-.05.15.05.01.06-.11.22-.16.41-.16zm-3.19-.22c0-.07-.08-.14-.17-.14-.09 0-.19.06-.22.14-.04.1.01.14.17.14.14 0 .22-.05.22-.14zM123.727 68.154c0-.21.23-.23.48-.05.22.18.19.23-.16.23-.25 0-.31-.04-.31-.18zM67.207 62.884c0-.3.02-.31.31-.31.3 0 .31.02.31.31 0 .3-.02.31-.31.31-.3 0-.31-.02-.31-.31zM96.817 63.074c0-.08-.04-.14-.09-.14-.15 0-.36-.51-.36-.9 0-.26-.04-.36-.14-.36-.07 0-.14-.06-.14-.14 0-.07-.08-.14-.17-.14-.1 0-.28-.12-.4-.27-.21-.24-.29-.27-.73-.27-.28 0-.5-.04-.5-.09 0-.05-.25-.09-.56-.09-.42 0-.68-.05-1.01-.22-.24-.13-.49-.22-.54-.22-.14 0-.32-.43-.32-.74 0-.21.04-.25.22-.25.48 0 1.98.2 2.03.26.03.05.24.1.48.14.44.07 1.32.47 1.32.6 0 .05.09.08.19.08.11 0 .26.07.34.16.23.24.52.38.95.44.3.04.41.02.41-.06s.19-.1.72-.07c.4.02.72 0 .72-.04 0-.05.08-.07.18-.07.1 0 .18-.06.18-.14 0-.09.09-.14.26-.14.22 0 .86-.35 1-.54.18-.26 1.03-.32 1.74-.13.23.07.22.76-.03.92-.1.06-.18.16-.18.22s-.12.19-.27.27c-.15.09-.27.24-.27.33 0 .13-.08.19-.33.22-.65.11-.75.14-.75.27 0 .08-.14.14-.41.19-.22.03-.41.09-.41.14 0 .05-.15.08-.35.08-.27 0-.36.04-.4.18-.03.13-.13.18-.28.18-.14 0-.35.08-.49.17-.16.12-.48.2-.94.24-.61.05-.7.04-.7-.09zM101.317 62.704v-.41l.34.03c.32.03.33.04.36.41l.03.38h-.73zM103.117 59.024c0-.3.02-.31.31-.31.3 0 .31.02.31.31 0 .3-.02.31-.31.31-.3 0-.31-.02-.31-.31zM61.087 55.334c0-.36.04-.37.43-.17.17.08.29.21.29.31 0 .14-.06.17-.36.17-.35 0-.36-.01-.36-.31zM59.107 55.154c0-.3.02-.31.31-.31.3 0 .31.02.31.31 0 .3-.02.31-.31.31-.3 0-.31-.02-.31-.31zM63.787 55.344c0-.07.19-.19.43-.27.23-.07.5-.16.58-.2.13-.05.15-.02.15.21 0 .23-.04.27-.33.32-.55.09-.84.06-.84-.06zM57.847 54.964c0-.18.04-.22.14-.18.08.03.24.05.36.05.15 0 .22.05.22.18 0 .15-.06.18-.36.18-.32 0-.36-.02-.36-.23zM88.627 50.524c-.29-.05-.31-.08-.34-.38l-.03-.33.56-.1c.71-.13.89-.28.89-.79 0-.35.02-.39.22-.39.33 0 .68-.25.68-.5 0-.12.05-.23.12-.25.05-.03 0-.05-.14-.05-.22-.01-.25-.05-.25-.31 0-.24.05-.31.3-.41.41-.18.67-.4.62-.53-.05-.16-.68-.41-.72-.29-.08.22-.63.86-.89 1.03-.15.1-.31.25-.33.35-.04.15-.1.16-.61.11-.31-.04-.58-.1-.59-.14-.01-.04-.26-.05-.56-.03-.5.04-.54.03-.54-.15 0-.17-.05-.19-.5-.19-.43 0-.5-.02-.5-.18 0-.11-.06-.18-.15-.18-.08 0-.36-.11-.63-.23-.41-.19-.57-.22-.95-.17-.26.04-.83.01-1.27-.05-.88-.11-1.03-.21-1.04-.68 0-.27.02-.29.54-.39.3-.06.54-.15.54-.22 0-.12.4-.33.6-.33.06 0 .12-.05.12-.13 0-.19 1.74-.5 2.81-.5.45 0 .69-.04.66-.09-.03-.05-.19-.09-.36-.09-.16 0-.31-.05-.33-.1-.02-.05-.38-.14-.79-.18-.42-.05-.84-.13-.92-.18-.09-.05-.28-.08-.43-.08-.15 0-.35-.08-.46-.19-.14-.14-.34-.2-.81-.23l-.62-.05v-.61h.69c.63 0 1.49-.18 2.14-.45.3-.13 2.5-.06 2.55.07.02.05.11.11.2.11.09 0 .18.05.2.1.02.06.11.06.28 0 .31-.13 1.18-.13 1.39-.01.2.11 1.23.36 1.5.36.31 0 .5.09.5.23 0 .1.16.13.68.13.38 0 .68.04.68.09 0 .05.11.11.25.14.69.15 1.01.26 1.18.41.1.09.22.17.28.17.05 0 .09.08.09.18 0 .1.05.18.13.18.14 0 .23.27.23.68 0 .24-.04.29-.27.34-.27.05-.27.05-.13.27.07.13.22.25.31.28.09.04.17.09.17.13 0 .03.12.13.26.22.25.14.26.19.32 1.02.05.54.04.89-.02.93-.05.03-.11.1-.13.14-.02.05-.14.26-.26.47-.2.34-.26.39-.56.39-.31 0-.34-.03-.34-.22 0-.18-.05-.22-.22-.22-.2 0-.22.04-.22.31 0 .17-.04.31-.09.31-.05 0-.09.08-.09.18 0 .11-.11.23-.29.32-.16.08-.33.21-.37.27-.04.07-.22.13-.39.13-.36 0-1.17.32-1.23.49-.05.12-2.69.16-3.3.06zm5.23-2.44c.09 0 .17-.05.17-.13 0-.11-.05-.11-.35.02-.27.12-.32.16-.21.21.08.04.17.02.18-.02.02-.05.11-.08.21-.08zM69.237 43.004c-.16-.42-.12-.85.1-.93.17-.07.18-.06.25.68.05.54.05.65-.07.65-.07 0-.2-.18-.28-.4z"/><g fill="#fff" stroke="#000" stroke-width=".1"><path d="M82.047 142.934c-.07-.05-.24-.08-.38-.08s-.37-.06-.51-.14c-.14-.07-.41-.17-.6-.21-.27-.06-.34-.12-.33-.27 0-.11-.03-.2-.06-.2-.04 0-.09-.1-.12-.22-.04-.13-.1-.22-.15-.22-.05 0-.07.04-.05.08.04.05-.03.06-.14.04-.1-.03-.15-.08-.11-.11.12-.08.22-.37.13-.37-.05 0-.13-.12-.19-.27-.06-.14-.14-.27-.18-.27-.06 0-.2-.3-.22-.5-.01-.05-.15-.17-.32-.28-.17-.1-.31-.23-.29-.29.01-.06-.03-.11-.08-.11s-.14-.12-.18-.27c-.05-.14-.15-.27-.22-.27s-.13-.04-.13-.07c0-.05-.16-.14-.37-.2-.33-.12-.35-.14-.21-.24.18-.14.16-.16-.25-.38-.16-.09-.31-.25-.32-.35-.02-.11-.14-.22-.3-.28-.14-.05-.26-.12-.26-.14 0-.03.05-.03.11.01.07.05.08.02.05-.09a.739.739 0 01-.06-.2c0-.02-.12-.04-.26-.04-.17 0-.31-.07-.41-.19l-.13-.19-.11.2c-.07.14-.15.17-.3.13-.11-.04-.22-.1-.25-.15-.04-.05-.21-.07-.39-.05-.18.02-.32 0-.32-.05s-.06-.04-.14.03c-.09.07-.35.11-.68.1-.32-.01-.54.03-.54.08 0 .15-.32.1-.55-.1-.15-.14-.31-.18-.54-.15-.19.02-.37-.02-.43-.08-.05-.06-.21-.12-.34-.12-.28 0-.95-.19-1.03-.29-.05-.09-.69-.18-1.2-.18-.25 0-.48-.08-.81-.31-.43-.29-1.36-1.06-1.67-1.39-.33-.34-.94-1.18-1.05-1.43-.05-.13-.21-.36-.34-.52-.27-.32-.77-1.22-1.27-2.27-.79-1.65-1.12-2.35-1.12-2.38 0-.02-.2-.47-.45-.99-.24-.52-.45-1.02-.45-1.1 0-.15-.35-.77-.47-.82-.04-.02-.07-.09-.07-.17 0-.07-.07-.24-.16-.37-.09-.14-.22-.39-.29-.56-.07-.17-.14-.33-.17-.36-.22-.19-.82-1.08-.82-1.21 0-.08-.08-.24-.18-.35-.1-.11-.31-.34-.49-.52-.38-.41-1.13-1.47-1.13-1.58 0-.11-1.37-2.03-1.7-2.41-.31-.33-1.98-2.72-2.06-2.92-.05-.16-.46-.73-.61-.86-.05-.05-.66-.88-1.34-1.85-.68-.96-1.36-1.89-1.5-2.05-.14-.16-.25-.33-.25-.39 0-.09-1.62-2.36-2.88-4.04-.4-.52-.82-1.15-.94-1.4-.13-.25-.44-.78-.7-1.17-.26-.39-.94-1.46-1.5-2.38-.56-.92-1.05-1.68-1.09-1.71-.04-.03-.22-.35-.42-.74-.2-.38-.53-.94-.73-1.27-.21-.31-.37-.59-.37-.62 0-.03.22-.01.47.04.42.06 4.19.64 5.05.76.36.05.48-.1.14-.18-.19-.05-2.99-.48-7.45-1.14-.96-.14-2.4-.35-3.19-.45-.79-.11-2.27-.31-3.29-.45s-1.86-.24-1.88-.22c-.02.02-.01.06.02.1.08.07 1.42.28 2.54.39.5.05 1.85.22 3.02.41l3.17.49c.58.09 1.08.18 1.1.2.14.14 1.4 2.29 1.4 2.38 0 .07.04.14.08.18.05.03.62.91 1.27 1.96.66 1.04 1.47 2.33 1.8 2.85.34.52.62 1.01.62 1.09.01.08.07.2.14.26s.32.38.55.71c.23.32.47.64.52.68.11.1 2.5 3.44 2.57 3.59.09.19 2.74 3.88 2.92 4.08.11.1.33.41.5.69.17.28.73 1.08 1.23 1.79 1.62 2.26 2.68 3.79 2.83 4.08.08.16.24.41.35.58l.2.28-.19.05c-.12.03-.18.1-.15.16.03.07-.06.14-.24.16-.45.07-.96.28-.96.39 0 .05-.05.1-.12.1-.15 0-.6.3-.6.4 0 .1.51.11.56.01.02-.05.2-.11.41-.14.31-.05.38-.04.32.05-.09.15-.4.38-.62.45-.17.05-.17.05.03.06.26.01.26.16 0 .24a.66.66 0 00-.27.16c-.04.05-.12.1-.18.1s-.13.04-.14.08c-.01.05-.06.11-.13.15-.14.09-.11.13.19.21.16.05.19.05.09-.03-.07-.05-.1-.12-.06-.15.04-.04.11-.03.16.03.05.05.22.07.41.03.41-.1.39-.03-.07.19-.22.1-.52.27-.69.38-.24.14-.3.16-.26.05.05-.11-.02-.15-.3-.2-.2-.04-.38-.12-.41-.18-.06-.18.18-.62.55-1.01.17-.18.31-.33.31-.36 0-.07-.5.19-.57.3-.04.06-.13.12-.19.12-.07 0-.25.14-.41.31-.38.43-.37.74.04 1.13.44.43.41.54-.14.54-.25 0-.53-.05-.62-.09-.19-.1-.85-.25-1.55-.35-.29-.05-.52-.03-.72.05-.39.16-2.14.3-2.58.2-.2-.05-.69-.26-1.12-.49-.42-.22-.86-.41-.98-.41-.11 0-.39-.06-.61-.14-.48-.17-.94-.22-2.38-.25-.76-.02-1.18-.07-1.41-.18-.43-.19-.43-.19-.43.08 0 .14.14.39.39.65.51.58.66.69 1.22.99.26.14.75.49 1.07.77.32.28.61.51.65.51.11 0 .35.68.5 1.38.07.35.17.68.22.75.2.23 1.04-.22 1.75-.94.19-.21.43-.37.54-.37.11 0 .35-.19.6-.47l.41-.48 1.3-.03c2.02-.05 2.04-.05 3.09-.01.55.03 1.04.08 1.12.12.09.05.11.05.06-.02-.11-.17.37-.13.76.07.22.11.37.14.41.09.03-.05.1-.09.14-.09.14 0 .06.75-.08.86-.06.05-.16.2-.22.31a.35.35 0 01-.33.22c-.13 0-.3.07-.38.16-.09.08-.24.15-.33.15-.1 0-.31.07-.48.15-.16.08-.41.21-.54.27-.14.07-.72.16-1.3.22-1.02.08-2.11.36-2.11.55 0 .04-.1.05-.22.02-.17-.05-.22-.02-.22.1 0 .13-.06.14-.41.1l-.82-.11c-.35-.05-.42-.09-.5-.31-.11-.31-.22-.34-.27-.06-.04.26-.38.38-1.46.51-.45.05-.85.14-.89.18-.12.12 3.69.18 4.08.06.42-.14.84-.08.77.09-.04.08.02.13.15.14.11.01-.03.05-.3.08-.27.04-1.03.04-1.69-.01-.66-.05-1.3-.06-1.42-.04-.12.03-.31.06-.44.09s-.22.09-.22.14c0 .05.37.09.9.09 1.01 0 1.2.13.33.22-1.1.13-4.04-.42-3.65-.68.09-.05.04-.08-.15-.08-.16 0-.56-.13-.89-.29-.46-.21-.77-.29-1.3-.32-.55-.04-.74-.08-.94-.25-.14-.12-.3-.22-.35-.22-.05 0-.35-.13-.67-.27-.45-.22-.87-.58-2.13-1.85-.87-.86-1.6-1.58-1.62-1.58-.05 0-1.4-.99-2.14-1.58-.29-.22-.69-.5-.9-.62-.22-.12-.58-.38-.79-.58-.24-.22-.59-.41-.9-.51-.28-.08-.62-.23-.77-.32-.14-.09-.32-.16-.4-.16-.06 0-.32-.16-.58-.37-.88-.69-1.54-.86-2.65-.66-.43.07-1.01.17-1.28.22-.48.07-1.22.31-1.74.54-.28.14-.31.32-.07.41.16.05 1.09-.17 1.66-.4.33-.13 2.7-.13 3.32 0 .63.14 1.9.73 2.3 1.08.18.15.7.46 1.17.67.66.31 2.38 1.45 2.64 1.76.03.03.28.22.56.42.88.65 1.02 1.06.31.96-.34-.05-1.48-.47-1.91-.7-.1-.05-.3-.13-.45-.16-.14-.04-.58-.2-.94-.35-.37-.16-.94-.37-1.26-.46-.94-.29-3-.62-4.18-.68l-1.09-.05.16.18c.15.18.15.19-.09.38-.44.34-1.47 1-1.55 1-.05 0-.25.08-.47.18-.41.18-.94.22-1.76.13l-.48-.06v-45.09l.21.05c.12.03.45.07.74.1l.54.05-.33-.13c-.18-.07-.52-.16-.75-.19l-.41-.06V78.824l.3.31c.48.5.64.6 1.28.82.32.12.67.28.76.37.1.08.28.18.41.22.13.03.27.11.33.18.05.07.18.13.27.13.1 0 .17.05.17.09 0 .05.04.09.09.09.29 0 1.81 1.32 2.12 1.85.05.1.32.29.59.44.27.14.61.36.76.48.15.11.32.2.37.2.05 0 .15.07.22.17.06.09.24.22.39.31.15.07.54.41.87.74.33.32.65.57.7.54.05-.04.1-.22.1-.43 0-.7.1-1.64.18-1.74.04-.05.12-.54.17-1.08.1-1.05.27-1.87.51-2.38.16-.34.38-1.49.45-2.43.02-.32.08-.62.13-.67.05-.05.08-.43.08-.85 0-.69-.02-.78-.22-.97-.21-.19-.22-.27-.22-1.07 0-.51-.04-.86-.09-.86-.13 0-.11-1.05.04-2.16.13-.93.42-2.03.59-2.2a.36.36 0 00.09-.22c0-.08.11-.34.22-.59.13-.24.22-.52.22-.6 0-.09.05-.16.13-.16.07 0 .15-.14.18-.31.04-.17.14-.35.22-.4.08-.05.41-.31.71-.61.3-.29.68-.61.83-.73.15-.12.28-.27.28-.33 0-.07.11-.18.24-.24.14-.06.32-.27.41-.46.08-.18.19-.33.23-.33.05 0 .12-.08.14-.19.05-.16.9-1.07 1-1.07.09 0 .67-.61.67-.71 0-.05.07-.1.16-.1.16 0 .83-.65.83-.81 0-.05.09-.09.2-.09.27 0 .79-.37.79-.56 0-.09.05-.16.12-.16.07 0 .2-.08.29-.18.09-.1.24-.18.33-.18.09 0 .19-.06.22-.14.05-.13.75-.65 1.22-.91.11-.06.23-.15.29-.21.05-.05.15-.1.22-.1.06 0 .3-.14.5-.31.22-.17.45-.31.53-.31.08 0 .19-.08.24-.18.05-.1.17-.18.26-.18.1 0 .19-.06.22-.14.03-.07.15-.14.28-.14.13 0 .27-.08.33-.18.06-.1.16-.18.22-.18s.12-.06.12-.14c0-.07.06-.14.14-.14.07 0 .21-.08.29-.18.09-.1.19-.18.23-.18.04 0 .31-.17.62-.37.53-.37.57-.38 1.59-.45 1.11-.08 2.58-.28 3.25-.43.22-.05.59-.09.82-.1.26 0 .46-.05.53-.14.09-.11.42-.14 1.94-.14 1.14 0 1.92.04 2.08.1.14.06.64.1 1.11.09 1.35-.03 2.38.16 2.81.52.13.1.32.12.86.07.39-.03.71-.1.73-.14.02-.05.22-.1.43-.1.22 0 .4-.04.4-.08s.11-.05.23-.03c.16.03.22.01.18-.05-.04-.06.04-.13.19-.15.14-.03.37-.11.5-.18.14-.07.31-.14.38-.14.06 0 .16-.06.22-.14.06-.07.24-.14.41-.14.16 0 .31-.04.34-.08.03-.04.18-.1.34-.14.16-.03.43-.15.61-.28.24-.17.45-.22.94-.24.61-.03.62-.03.78.25.1.18.18.58.22 1.09.06.74.05.85-.16 1.3-.13.27-.27.71-.33.98s-.17.63-.24.79c-.07.16-.1.38-.06.49.05.14.03.18-.08.14-.15-.05-.29.17-.15.25.13.08.11.62-.02.75-.14.14.02.31.31.33.17.01.2.06.18.25-.02.13.02.31.07.41.07.15.07.19-.04.19-.07 0-.16-.04-.19-.09-.03-.05-.14-.09-.22-.09-.09 0-.19-.07-.22-.17-.06-.19-.39-.51-.45-.44-.1.09.44.79.6.79.1 0 .16.06.16.18 0 .09.08.22.18.27.14.07.18.19.18.5 0 .27.04.39.1.34.05-.03.07-.18.05-.34-.05-.23-.03-.29.12-.3.14-.01.15.03.09.39-.1.5-.17.64-.26.49-.05-.07-.11-.02-.19.17-.08.18-.17.26-.26.23-.07-.02-.2 0-.27.05-.1.06-.1.09-.02.09s.1.06.06.21c-.06.2-.06.2.07.02.14-.17.14-.17.2-.02.04.08.03.21-.03.27-.05.05-.14.29-.21.51-.06.22-.14.42-.17.45-.03.03-.09.13-.14.22-.06.1-.17.17-.24.15-.18-.03-.27.27-.2.68l.05.34-1.15.15c-.63.08-1.23.17-1.33.21-.17.05-.18.01-.15-.64.02-.37.06-.66.09-.64.04.02.05-.65.04-1.49-.02-1.04.01-1.58.08-1.72.08-.14.08-.21 0-.23-.05-.02-.1-.2-.1-.39 0-.22.04-.34.09-.31.13.07.12-.43-.01-.56-.05-.05-.08-.21-.06-.35l.04-.26.1.22.11.22v-.24c.01-.14-.03-.25-.07-.25-.05 0-.03-.14.05-.32.11-.25.12-.39.04-.63-.05-.17-.16-.31-.23-.31-.14 0-.14-.16-.13 3.1.01 1.32-.04 2.8-.09 3.29-.05.48-.12 1.03-.14 1.24l-.05.37-.86.3c-1.57.54-2.51 1.19-4.1 2.83-1 1.03-1.35 1.54-1.63 2.4-.28.87-.56 3.37-.42 3.79.05.16.3 1.18.55 2.27.6 2.62 1.26 5.45 1.75 7.56.97 4.16 1.31 5.67 1.31 5.83 0 .28.91 4.15 1 4.24.17.18.19-.06.05-.59-.2-.77-.85-3.6-.96-4.21-.05-.27-.23-1.14-.41-1.93-.29-1.34-.55-2.48-1.6-6.97-.23-.96-.62-2.63-.86-3.69s-.49-2.08-.54-2.25c-.26-.92.07-3.49.6-4.66.22-.47 1.84-2.31 2.3-2.62.13-.08.33-.26.48-.4.5-.51 1.86-1.19 3.14-1.58 1.34-.41 2.29-.5 4.72-.5l2.3.01 1.08.36c.75.25 1.03.38.9.41-.1.04-.05.05.09.02.15-.02.45.01.68.05.22.05.81.14 1.3.21 1.29.19 1.67.27 1.99.44.32.17.66.62.5.68-.14.05-.14.29-.02.29.05 0 .09.05.09.12.01.05.34.34.75.63 1.13.79 1.29.87 2.22 1.15.37.11.72.22.76.27.05.04.5.22.99.39.5.18.97.36 1.05.41.08.05.32.11.54.14.37.05.38.05.21-.09-.1-.07-.33-.17-.51-.2-.19-.04-.34-.09-.34-.13 0-.04-.11-.1-.24-.14a.833.833 0 01-.41-.25c-.09-.11-.14-.14-.11-.08.08.15-.09.14-.26-.03-.07-.07-.17-.14-.22-.14-.05 0-.07-.06-.05-.14.04-.07.02-.14-.04-.14-.05 0-.11.05-.13.1-.04.11-.34-.03-.59-.26-.06-.05-.14-.11-.18-.11-.04 0-.06-.15-.06-.33 0-.25.05-.35.16-.37.15-.04.2-.13.1-.22-.09-.09-.32.2-.45.55l-.12.33-.01-.38c0-.41-.12-.5-.32-.22-.12.14-.14.14-.26-.03-.13-.15-.15-.16-.22-.05s-.12.12-.27.02c-.1-.05-.31-.11-.45-.11-.16 0-.26-.04-.22-.09.03-.05 0-.07-.06-.05-.16.06-.74-.48-.87-.82-.24-.61.2-1.63.84-1.94.33-.16.41-.25.58-.75.18-.52.19-.59.06-.83-.07-.14-.2-.31-.27-.38-.08-.07-.14-.16-.14-.21 0-.05-.04-.13-.09-.19a8.16 8.16 0 01-.86-1.25c-.19-.33-.39-.58-.42-.56-.05.03-.05-.05-.02-.18.05-.19.03-.22-.09-.18-.1.04-.19-.04-.3-.22-.09-.15-.19-.28-.22-.28-.11 0-.08.22.04.34.08.08.08.14.01.21-.16.16-.27.03-.22-.28.05-.29.01-.31-.25-.18-.14.07-.18.05-.22-.08-.06-.21-.03-.39.09-.49.05-.04 0-.09-.12-.12-.14-.05-.19-.11-.15-.22.04-.11-.01-.2-.14-.26-.1-.05-.16-.14-.14-.19.04-.05.1-.06.14-.04.05.04.08-.01.08-.08 0-.08-.05-.14-.11-.13-.12.03-.22-.4-.3-1.28-.04-.32-.1-.72-.15-.88-.05-.16-.1-.52-.12-.81-.13-2.2-.27-3.27-.45-3.37-.09-.05-.14-.2-.14-.41.02-.46-.17-1.75-.27-1.86-.04-.05-.1-.29-.14-.54-.14-.98-.33-1.66-.5-1.75-.09-.05-.34-.09-.57-.09-.41 0-1.14-.19-1.53-.39-.32-.17-1.27-.82-1.3-.89-.07-.15-.29-.05-.47.2-.22.31-.38.35-.31.07.14-.63.12-1.21-.05-1.1-.05.03-.08-.07-.08-.22 0-.14-.04-.29-.08-.31-.04-.03-.11-.18-.14-.34-.04-.16-.08-.24-.11-.18-.07.18-.21.13-.21-.09-.01-.12-.09-.43-.19-.7-.18-.5-.44-1.62-.38-1.62.02 0-.03-.09-.1-.2-.08-.11-.14-.24-.14-.3 0-.05.04-.03.09.05.05.08.07-.81.06-2.4-.01-1.39.01-2.51.05-2.48.04.02.06-.02.06-.08 0-.09.03-.08.08.01.07.11.1.09.14-.09.19-.82.32-1.95.32-2.79 0-.76.05-1.1.19-1.53.15-.45.17-.57.07-.63-.06-.04-.09-.1-.05-.14.07-.07.33.13.33.26 0 .05.1.3.22.55.12.25.28.63.37.84.09.21.2.36.23.33.05-.03.08.04.08.14 0 .22.18.64.28.64.04 0 .09-.05.12-.11.04-.06.04-.03.02.09-.03.14 0 .2.07.17.14-.05.34.1.53.4.22.34.51 1.24.41 1.3-.05.04-.08.16-.07.3l.01.24.06-.22c.05-.16.08-.19.14-.11.04.06.13.1.2.07s.13-.02.13.03.11.14.23.23c.16.11.26.12.34.05.08-.07.22.01.53.29l.41.39.11-.22c.1-.17.1-.22-.01-.29-.08-.05-.09-.09-.03-.09.05 0 .11-.07.11-.15 0-.09.03-.33.06-.54.04-.25.03-.39-.04-.39-.06 0-.05-.07.01-.22.06-.13.18-.22.27-.22.09 0 .15-.07.15-.18 0-.1-.04-.18-.08-.18-.12 0-.18-.22-.13-.44.04-.14.1-.18.21-.14.14.05.15 0 .13-.29-.01-.2.01-.29.05-.22.05.07.1.08.14.03.09-.14-.2-.59-.41-.67-.2-.05-.2-.05.03-.06.28-.01.41-.23.19-.32-.14-.05-.13-.08.07-.22.19-.14.2-.18.06-.18-.09 0-.14-.04-.11-.09.03-.05.12-.06.21-.04.11.04.12.03.04-.03a.197.197 0 01-.05-.23c.04-.12.09-.13.22-.06.27.14.38.11.31-.1-.05-.13-.03-.17.03-.14.05.03.12.02.14-.03.06-.09.73-.05.89.05.06.04.19.07.29.08.1 0 .32.04.5.06.22.05.26.04.14-.02-.16-.07-.16-.09-.03-.14.08-.04.2-.04.24 0 .05.03.19.01.3-.05l.2-.11-.21-.07c-.11-.05-.17-.12-.14-.17.03-.05-.01-.09-.08-.09-.08 0-.14.04-.14.08 0 .12-.32.18-.46.09-.09-.05-.07-.08.08-.08.15 0 .2-.05.2-.22 0-.13-.03-.22-.06-.22-.05 0-.15-.06-.24-.14-.13-.1-.14-.16-.07-.25.16-.19.1-.53-.09-.49-.18.05-.2-.01-.08-.19.05-.08.26-.13.58-.13.3 0 .57-.05.63-.13.07-.06.14-.09.18-.06.06.06.41-.23.41-.34 0-.08-.36-.22-.51-.19-.14.03-.23-.14-.12-.21.05-.03.09-.15.09-.27 0-.13.08-.26.18-.31.1-.05.16-.14.14-.19-.04-.05.01-.08.08-.08.17 0 .19.1.04.25-.05.05-.08.13-.05.15.06.06.52-.31.52-.42 0-.05.09-.16.2-.25.24-.19.22-.24-.15-.28-.2-.02-.33.04-.52.22-.31.31-.41.25-.19-.09.13-.18.14-.26.05-.29-.19-.06-.12-.16.22-.34.37-.19.87-.66.8-.73-.03-.03-.01-.13.05-.22.06-.13.05-.21-.1-.35-.1-.1-.23-.18-.3-.18-.08 0-.11-.09-.08-.27.04-.22.01-.27-.14-.27-.1 0-.21-.06-.23-.14-.04-.1-.01-.13.12-.08.13.04.2-.03.31-.26.08-.17.14-.35.14-.41 0-.05.05-.1.1-.1.14 0 0-.41-.38-1.19-.11-.21-.1-.5 0-.56.07-.05.2.25.23.53.01.05.08.24.16.42.14.32.15.33.41.24.29-.1.46-.26.27-.26-.07 0-.07-.04.02-.14.09-.12.09-.15 0-.21-.14-.09-.01-.41.22-.52.06-.05.14-.22.18-.39.03-.17.02-.27-.03-.21-.1.16-.81.4-.87.29-.04-.05-.01-.08.05-.08.13 0-.08-.22-.26-.28-.15-.05.31-.57.61-.67.18-.05.21-.11.16-.37-.05-.34.02-.4.18-.14.08.14.21.18.48.17.4 0 .4 0 .27-.42l-.08-.31.26.26c.15.14.33.4.41.56.12.22.21.29.41.29.14 0 .26.05.26.09 0 .05.05.09.1.09s.2.08.32.18c.13.1.27.18.31.18.15 0 .08-.24-.14-.45-.29-.27-.29-.36.01-.36.14 0 .32.1.45.22.12.13.27.22.34.22.1 0 .07-.06-.08-.23-.22-.24-.29-.4-.16-.4.12 0 .75.48.75.56 0 .05.11.07.25.06.31-.03 1.28.25 1.28.37 0 .05.15.09.35.09.2 0 .4.05.46.14.06.07.17.14.24.14.06 0 .21.08.31.17.22.21.51.3.58.18.03-.05-.09-.14-.25-.21-.16-.07-.41-.23-.57-.36-.14-.13-.32-.23-.38-.23s-.12-.05-.12-.12c0-.06-.4-.52-.89-1.03-.57-.58-.9-1.01-.94-1.17-.04-.22-.03-.23.06-.08.11.18.94 1.03 1.85 1.87.31.28.55.55.55.59 0 .05.24.16.54.25.3.1.54.2.54.23 0 .11.98.61 1.19.61.12 0 .4.1.63.22.23.13.49.22.57.22.07 0 .14.05.14.1 0 .06.11.08.31.05.17-.04.38-.02.47.03.09.05.29.13.45.18.23.07.31.05.44-.09.09-.1.11-.17.05-.17s-.11-.06-.11-.14c0-.07.03-.14.05-.14.11 0 .31.27.27.35-.03.05.01.1.08.14.08.03.14 0 .14-.09 0-.11.06-.1.37.05.36.19.38.19.55.03.12-.1.2-.13.22-.06.02.05.09.18.15.27.11.14.14.14.27.05.08-.06.14-.18.14-.24 0-.16.28-.02.69.36.3.27.51.27.3.01-.06-.08-.09-.17-.05-.2.04-.04.09-.02.13.04.04.05.3.18.58.27.43.15.51.16.51.05 0-.09.06-.11.25-.06l.24.06-.19-.22c-.11-.12-.17-.26-.15-.31.07-.19.18-.14.3.14.11.28.45.45.45.22 0-.07-.04-.13-.07-.13-.05 0-.13-.1-.18-.22-.12-.25-.02-.31.16-.09.16.19.27.17.27-.05 0-.17.02-.18.14-.07.08.07.22.29.31.49l.16.36-.05-.41c-.05-.42-.02-.41.25.27.06.14.11.18.14.11.03-.07-.03-.29-.12-.49-.16-.37-.16-.37.04-.5.26-.17.25-.34-.02-.44-.17-.06-.2-.11-.14-.27.05-.12.14-.21.22-.21.14 0 .18-.11.07-.22-.04-.04-.07-.2-.08-.35-.02-.25 0-.26.1-.13.06.09.09.24.06.35-.03.13-.01.17.05.13.05-.03.12.03.15.13.11.32.21.19.12-.15-.1-.38-.19-1.22-.11-1.03.03.05.11.11.18.11.12 0 .17.12.14.3-.01.05.03.05.08.02.06-.04.08.03.05.2-.05.2-.02.19.1-.08.16-.38.21-.4.51-.23.26.15.33.25.34.52.01.22.01.22.1-.05.13-.36.42-.68.64-.68.16 0 .17.02.05.16-.08.08-.17.24-.21.36-.03.11-.09.18-.14.15-.05-.03-.1.04-.14.14-.03.1-.1.18-.14.18-.05 0-.08.1-.08.22 0 .14.05.21.12.19.39-.13.6-.14.6-.04 0 .05-.24.34-.54.63-.41.4-.54.58-.54.77 0 .14-.05.3-.11.36-.05.05-.07.14-.04.17.1.11.52-.42.47-.58-.04-.08-.01-.12.05-.09.06.02.11.11.1.2-.01.19.24.5.36.43.05-.04.07.05.05.19-.04.2-.02.23.09.19.07-.03.17 0 .21.06.05.08.1.08.2 0 .06-.06.15-.08.18-.05.03.04.12-.01.2-.09.08-.08.19-.14.24-.14.05 0-.01.08-.14.18-.13.1-.25.18-.28.18-.04 0-.14.07-.24.17-.18.16-.18.16.03.22.12.03.37.05.57.05.35 0 .35 0 .15.14-.21.14-.29.67-.1.67.05 0 .06-.05.04-.09-.04-.05.06-.12.22-.14.15-.04.28-.11.28-.17 0-.06.06-.14.14-.16.1-.05.12 0 .07.22l-.05.28.5-.05c.29-.03.51-.03.51 0 0 .07-.46.47-.55.47-.05 0-.08.04-.08.09 0 .05.09.05.22-.02.13-.05.22-.14.22-.17 0-.05.14-.1.32-.14.17-.04.34-.12.37-.18a.24.24 0 01.21-.13c.09 0 .21-.05.26-.13.05-.07.3-.15.53-.19.22-.04.54-.14.68-.24l.26-.19-.06.21c-.06.19-.05.2.22.14.21-.05.27-.04.23.04-.04.06.01.1.12.1.1 0 .2-.04.23-.08.03-.05.2-.06.39-.05.18.03.39.05.45.05.21.02.11.16-.21.29-.17.07-.31.15-.31.18 0 .02.31.02.68-.01.37-.03.74-.02.83.02.09.05.21.08.25.08.05.01.08.08.06.17-.02.12.04.15.22.15.14.01.69.01 1.22.01.6.01 1.01.05 1.08.12.28.26.76.58.82.53.09-.09.31.15.37.43.05.18.12.26.23.26.09 0 .17.05.17.09 0 .11-.24.12-.31.02-.07-.13-.58-.01-.64.14-.07.2.02.25.17.13.14-.12.29.01.19.16-.03.05.05.15.15.22.11.08.15.14.09.14-.05 0-.11.06-.11.14 0 .08.08.14.22.14.2 0 .22.04.22.39 0 .21.01.44.03.51.03.09-.05.14-.23.17-.26.05-.25.05.09.1l.36.06-.34.02c-.34.01-.4.19-.05.19.09 0 .17.05.17.1 0 .06-.08.08-.22.05-.16-.04-.22-.01-.26.13-.03.11-.01.16.05.13.05-.04.07.01.04.13-.05.15-.03.18.14.14.16-.04.18-.02.07.05-.11.08-.11.1.03.15.22.08.2.34-.02.28-.3-.07-.38.05-.27.42.05.19.07.36.05.4-.03.03-.05-.02-.05-.1s-.04-.15-.09-.15c-.05 0-.09.1-.09.22 0 .13.04.22.09.22.05 0 .06.06.03.14-.04.09.01.2.1.26.12.09.13.14.05.19-.06.04-.16-.01-.23-.1-.1-.14-.12-.15-.12-.02 0 .08.07.18.16.23.12.07.06.09-.22.07-.22-.01-.43.04-.5.11-.1.1-.09.12.02.08.08-.03.21.07.32.27l.19.31.19-.19c.11-.11.22-.15.24-.11.04.05.01.09-.04.09s-.1.06-.1.14c0 .09-.09.14-.27.14-.14 0-.27.05-.27.09 0 .05.06.09.14.09.07 0 .14.05.14.09 0 .08-.2.12-.72.12-.14 0-.16.02-.06.04.23.06.18.19-.09.22-.15.02-.25.08-.25.16s.1.14.25.16c.33.04.31.2-.03.2-.22 0-.27.04-.27.21 0 .12-.05.25-.1.31-.14.14.1.39.36.39.13 0 .19.05.19.18 0 .14-.06.18-.22.18-.21 0-.22.03-.17.25.08.31.13.37.13.13 0-.11.05-.2.09-.2.05 0 .09.14.09.32 0 .17.05.4.09.49.06.12.06.19 0 .22-.05.03-.09.01-.09-.04s-.06-.1-.14-.1c-.08 0-.22-.09-.31-.19-.1-.11-.22-.17-.31-.14-.17.06-.18.29 0 .36.07.03.14.14.14.23 0 .1-.06.18-.14.18-.07 0-.14-.06-.14-.14 0-.21-.22-.4-.37-.31-.1.06-.09.09.04.14.09.04.14.11.12.17-.05.14.28.24.56.16.16-.04.2-.01.2.18 0 .13.05.24.1.26.08.03.14.19.16.45.01.04.16.1.36.13.19.03.4.09.46.13.16.1.05.35-.2.44l-.21.07.21.06c.26.08.25.3 0 .35-.18.04-.17.04.05.05.14 0 .24.05.24.11s-.09.08-.22.06c-.29-.06-.29.04 0 .34.17.18.26.22.32.15.07-.07.14-.07.21 0 .09.07.09.15-.01.33-.07.16-.09.32-.04.5.07.26.06.27-.17.23-.19-.03-.25.01-.3.15-.03.13-.12.19-.27.19-.13 0-.25.04-.29.09-.04.05-.14.05-.28 0-.15-.06-.21-.06-.17 0 .07.12-.1.12-.31 0-.22-.12-.63-.02-.63.14 0 .07-.09.13-.22.13s-.22.05-.22.09c0 .05.09.09.21.09.18.01.18.02.05.1-.13.06-.21.05-.35-.09-.1-.09-.26-.19-.36-.22-.14-.04-.16-.01-.12.16.05.23-.12.4-.2.19-.06-.16-.44-.2-.53-.05-.03.05-.15.09-.28.09-.12 0-.22-.04-.22-.09 0-.13-.21-.11-.5.04-.14.07-.31.11-.37.08-.07-.03-.13-.01-.13.04 0 .13-.5.39-.76.39-.14 0-.22.04-.18.09.04.05-.07.09-.27.09-.17 0-.46.05-.63.13-.16.07-.54.15-.83.19-.29.04-.61.12-.72.19-.11.07-.28.13-.38.13-.1 0-.21.05-.23.1-.04.05-.12.07-.19.05-.07-.03-.1 0-.06.09.03.07-.01.13-.09.13s-.17.08-.2.18c-.04.1-.09.16-.14.14-.05-.03-.1-.01-.14.05-.04.05-.1.06-.15.04-.05-.04-.13 0-.17.06-.05.08-.25.13-.62.13-.34 0-.54.04-.54.1 0 .06-.06.13-.14.16-.07.03-.14.11-.14.18 0 .07-.09.21-.21.3-.2.15-.21.22-.22 1.38-.02.88.02 1.31.11 1.58.09.24.14.3.14.16 0-.11.05-.22.09-.25.05-.03.14-.23.19-.46.06-.22.15-.4.22-.4s.13-.08.13-.18c0-.1.06-.18.14-.18.08 0 .14.08.14.22 0 .13.06.25.14.29.13.05.12.08-.06.22l-.22.17.21.05c.11.04.2.12.2.18 0 .07.08.13.18.13.11 0 .3.1.42.22.13.12.29.2.36.17.06-.03.17 0 .24.05.06.05.14.07.17.04.04-.03.06.03.06.14 0 .21.18.29.18.09 0-.07.07-.04.14.06.1.12.16.14.19.07.05-.13.5.01.67.21.06.07.27.13.5.13.42 0 .83.14 1 .36.06.08.11.09.12.03 0-.05.07-.08.17-.05.09.02.38-.02.64-.1.27-.08.5-.13.52-.1.03.03.11-.01.19-.08.08-.06.24-.14.37-.17.5-.12 1.06-.36 1.29-.57.13-.12.27-.22.31-.22.13 0 .4-.36.34-.45-.04-.05.01-.09.08-.09.08 0 .14-.07.14-.15 0-.14.02-.14.09-.03.07.12.09.12.09-.01 0-.15.66-.8.81-.8.05 0 .07.05.04.12-.05.06.03.05.14-.04.13-.09.22-.22.2-.3-.02-.08.02-.14.07-.14s.09-.1.09-.22c0-.22.14-.32.47-.32.24 0 .43-.22.43-.49 0-.19.05-.23.23-.23.21 0 .23.03.2.22-.03.13-.01.22.04.22s.07.18.05.41c-.02.23.01.39.06.38.05-.01.08-.12.06-.22-.02-.14.01-.19.07-.15.14.08.04.66-.14.83-.07.07-.13.18-.13.23 0 .06.04.05.09-.03.07-.12.09-.11.09.03 0 .08-.05.15-.13.15-.21 0-.23.24-.05.46.09.11.17.24.17.3 0 .05-.05.04-.09-.04-.08-.12-.1-.12-.18 0-.05.07-.09.24-.09.37s-.03.26-.06.3c-.04.04-.08.2-.08.35-.01.16-.05.55-.07.86-.04.35-.03.61.04.68.07.08.05.13-.05.17-.07.03-.14.14-.14.23 0 .11-.04.17-.08.14s-.08.16-.09.41c0 .27-.05.5-.12.54-.09.05-.07.07.04.07.15 0 .29-.29.25-.55-.04-.23 0-.36.08-.31.14.09-.07.99-.27 1.13-.11.08-.17.23-.18.45 0 .18-.03.27-.05.21-.06-.17-.21-.04-.21.22 0 .12-.04.22-.09.22a.09.09 0 00-.09.09c0 .05.06.06.14.04.09-.04.14 0 .14.1s-.05.14-.14.1c-.09-.03-.14.01-.14.11 0 .09-.05.21-.11.27-.08.08-.08.14 0 .22.06.06.1.21.1.33-.02.22-.02.22-.05.04-.05-.25-.17-.26-.3-.03-.05.1-.07.18-.05.18.1 0-.24.68-.45.9-.14.14-.22.36-.24.58-.02.22-.07.35-.14.33-.06-.01-.12.03-.12.09 0 .05-.09.2-.2.31-.17.18-.17.21-.04.21s.11.04-.07.22c-.14.12-.23.25-.23.3 0 .05-.1.16-.22.24-.21.14-.24.41-.04.28.05-.04.08-.02.08.04 0 .05-.14.12-.31.15-.35.06-.45.16-.34.33.04.05.05.18.05.27-.02.08.01.15.06.15.12 0 .02.29-.14.42-.07.05-.14.22-.14.38-.01.15-.05.28-.08.28-.12 0-.53.48-.53.6 0 .06-.04.12-.09.12-.05 0-.11.1-.14.22-.03.13-.09.22-.14.22-.04 0-.14.14-.22.31-.09.19-.22.32-.34.34-.17.03-.2.1-.22.46-.02.29-.06.42-.14.4-.06-.02-.15.05-.2.15-.05.11-.15.19-.22.19-.06 0-.17.15-.23.33-.13.37-.45.69-.69.7-.09 0-.16.05-.16.09 0 .05-.05.09-.12.09-.28 0-.61.22-.57.39.05.2-.02.42-.13.42-.05 0-.09-.06-.11-.14-.02-.12-.05-.11-.18.05-.14.15-.14.18-.03.18.26 0 .13.17-.18.23-.17.03-.31.08-.32.12 0 .03-.03.18-.05.32-.03.15-.05.35-.07.44-.02.1-.1.22-.19.27-.24.14-.41.3-.41.41 0 .05-.05.2-.11.34-.05.14-.1.28-.09.31.01.03-.05.11-.12.16-.07.06-.14.21-.14.32 0 .14-.05.22-.14.22-.16 0-.18.18-.02.19.05 0 .02.05-.1.11-.21.1-.56.67-.56.9 0 .13-.59.7-.66.63-.03-.02-.09.09-.14.24-.08.23-.13.27-.3.22-.14-.04-.17-.03-.08.03.06.05.08.1.03.12-.05.02-.11.13-.14.23-.06.2-.05.2.41-.05.26-.14.62-.33.79-.43.46-.27.77-.32.94-.16.17.17.23.17.23 0 0-.1.12-.14.49-.14.27 0 .52-.05.55-.09.04-.05.47-.09 1.06-.08.86 0 1.07-.03 1.39-.18.21-.11.43-.19.5-.19.06 0 .15-.03.19-.06.1-.1.71-.3.94-.3.23 0 .25-.07.06-.22-.13-.09-.12-.12.05-.25.17-.15.18-.15.18.13 0 .27.01.28.14.11.1-.12.15-.14.18-.05.03.06.13.15.22.2.16.09.16.08.04-.22l-.14-.32.3.01c.45 0 .73-.05.94-.16.11-.06.39-.11.61-.11.34 0 .43-.04.47-.18.03-.1.13-.18.22-.18.1 0 .17-.05.17-.1 0-.07.04-.07.12 0 .14.12.94.06 1.08-.07.05-.05.14-.1.2-.1.05 0 .15-.05.22-.09.12-.07.11-.1-.05-.22-.18-.14-.18-.14.03-.11.13.03.2 0 .2-.07 0-.06.12-.16.27-.22.14-.06.37-.21.5-.33.14-.12.31-.21.39-.18.08.02.2-.02.26-.09.06-.06.22-.12.34-.12.29 0 .92-.36.99-.56.06-.2.18-.21.25-.03.03.07.09.14.14.14.05 0 .07-.06.05-.14-.04-.07-.02-.14.04-.14.05 0 .12.05.14.12.04.08.05.08.05-.01.01-.09.09-.06.27.07l.27.18.14-.19c.07-.11.12-.23.09-.28-.03-.04.02-.07.1-.07.1 0 .14.05.1.16-.05.14 0 .15.36.12.41-.03.41-.03.31.17-.11.2-.11.21.32.14.24-.05.53-.08.65-.08.11-.01.2-.04.2-.07 0-.05.3-.07.66-.08.44 0 .59-.03.47-.08-.13-.05-.01-.08.39-.08.41-.01.55.02.5.1-.05.06-.03.07.05.03.21-.12 2 .23 2.53.5.27.14.72.36.99.5.63.31 1.14.71 1.22.94.04.09.09.15.14.13.23-.14 1.4 1.92 1.66 2.92.16.64.3 1.77.36 3 0 .14.06.24.12.24s.14.11.17.25.07.32.1.42c.03.1.02.15-.02.12-.07-.07-.24.07-.38.33-.05.1-.09.41-.08.7.01.28-.02.51-.06.51-.04 0-.05.05 0 .11.12.2.09.79-.04.79-.12 0-.17.39-.14.93.02.18-.01.23-.09.19-.09-.05-.09-.04-.01.05.06.07.07.16.03.26-.05.08-.13.35-.17.59-.07.35-.06.47.03.54.16.13.11.72-.07.91-.08.08-.26.29-.4.47-.33.44-1.03 1.09-1.16 1.1-.06 0-.12.05-.12.09 0 .13.61.05.75-.08.14-.14.24-.13.24.02 0 .13-.28.4-.6.58-.17.1-.22.08-.38-.14-.17-.23-.18-.24-.43-.09-.29.17-.38.34-.17.34s.18.32-.05.49c-.16.12-.17.16-.07.28.16.19-.03.17-.3-.05-.22-.18-.22-.18-.27 0-.03.1-.02.16.02.14.04-.03.31.18.63.44.31.26.68.53.83.58.35.15.32.24-.09.31-.36.06-1-.15-1-.32 0-.05-.14-.15-.31-.23-.19-.09-.31-.2-.28-.27.05-.14-.35-.16-.44-.03-.03.05-.16.06-.3.04-.17-.04-.31.01-.45.14-.23.2-.68.32-.83.23-.05-.04-.15.01-.22.1-.06.1-.15.14-.19.11-.04-.04-.01-.13.05-.21.18-.22-.12-.17-.31.05-.16.18-.16.18-.37-.05-.22-.22-.45-.22-.36.03.03.07.01.1-.04.07s-.09-.12-.09-.2c0-.1-.05-.12-.15-.07-.18.07-1.47.41-1.58.41-.05 0-.05-.04-.02-.09.03-.05.14-.09.25-.09.12 0 .15-.04.11-.08-.11-.1-1.03-.17-.98-.08.02.04-.01.09-.07.14-.08.05-.03.09.15.14.25.06.25.06-.05.04-.17-.02-.58.03-.89.1-.31.06-.58.12-.6.1-.01-.02.04-.16.12-.33.14-.3.15-.3.64-.23.34.05.47.03.43-.04-.04-.05-.1-.1-.15-.1-.3 0-.82-.34-.95-.63-.18-.38-.21-1.36-.04-1.56.06-.08.1-.19.09-.26-.05-.34.03-.42.44-.55.29-.08.41-.16.39-.25-.15-.57-.05-.77.63-1.22.24-.15.34-.29.39-.52.04-.18.12-.32.18-.32s.27-.17.47-.38c.2-.22.5-.5.67-.63.22-.17.27-.24.16-.25-.09 0-.38.2-.65.44s-.58.5-.69.56c-.11.05-.41.32-.65.58-.24.27-.5.49-.56.49-.06 0-.16.06-.22.14-.1.12-.14.11-.28-.05-.18-.22-.22-.31-.1-.37.11-.05.37-1.07.27-1.04-.05.02-.18.25-.28.52-.1.27-.28.63-.4.79-.19.25-.24.28-.37.18-.12-.1-.14-.09-.09.09.04.11.02.18-.03.14-.12-.07-.1-.22.05-.52.26-.5.03-.37-.63.34-.47.5-.7.69-.81.65-.08-.03-.12-.02-.09.03.08.14-.31.22-.45.1-.11-.09-.18-.08-.34.03-.11.07-.32.15-.49.19-.23.05-.29.04-.34-.12-.07-.22-.27-.24-.46-.05-.13.12-.6.19-1.06.15-.11-.02-.14.03-.12.11.04.09 0 .11-.13.08a.572.572 0 00-.38.05c-.11.05-.38.13-.6.14-.55.06-1.79.31-1.9.37-.05.04-.41.07-.79.08-.56.03-.77.07-.99.22-.54.39-1.64.65-2.83.68-.47.01-.74.05-.76.13-.06.21 2.28.08 2.63-.14.05-.03.14-.06.19-.06.05 0 .22-.08.4-.17.22-.11.53-.17 1.02-.19.7-.02.72-.02.93.26.11.15.22.36.24.46.02.12.13.2.3.22.16.03.31.13.36.25.05.11.14.18.21.15.06-.02.15.05.2.18.05.13.17.31.27.42.1.11.18.25.18.31s.05.12.12.12c.06 0 .13.12.14.26.02.24-.02.28-.31.36-.19.05-.45.1-.58.1-.51 0-3.52.56-4.63.86-2.54.68-4.56 1.3-4.79 1.44-.11.06-.23.25-.28.41-.05.16-.32.88-.62 1.6-.29.72-.62 1.61-.73 1.98-.21.72-.73 2.76-.8 3.17-.03.14-.08.23-.12.21-.04-.03-.09.02-.12.09-.04.08-.01.11.08.07.13-.05.13-.02.01.27-.08.17-.12.34-.08.37.03.03.01.05-.05.05-.05 0-.12.15-.14.34-.07.52-.34 1.48-.5 1.73-.08.13-.17.39-.21.58-.11.56-.7 2.3-.94 2.75-.18.34-.22.59-.26 1.37-.02.51-.08 1.05-.14 1.2-.22.62-.31.81-.39.91a.21.21 0 00-.03.2c.03.05.03.15-.01.25-.05.14-.07.14-.13-.06-.05-.16-.06-.08-.07.28-.01.28-.04.53-.07.57-.04.03-.14.33-.25.67-.13.38-.24.59-.31.58-.07-.02-.09.03-.05.12.03.08-.02.28-.1.43-.14.26-.15.27-.22.11-.05-.14-.07-.08-.07.19-.01.3-.05.39-.19.42-.1.03-.18.1-.18.15 0 .09.03.09.14 0 .17-.14.17-.01 0 .22-.07.1-.14.25-.14.34 0 .09-.04.16-.09.16-.05 0-.09.08-.09.17 0 .09-.06.2-.14.22-.07.03-.11.09-.08.14.03.05 0 .06-.08.04-.09-.04-.14.04-.19.22-.03.15-.12.3-.18.32-.07.03-.11.1-.08.17s-.02.18-.1.24c-.07.06-.14.17-.14.24 0 .13-.7.83-.83.84-.04 0-.05.06-.02.14.04.08 0 .14-.09.14-.08 0-.14-.06-.14-.14 0-.07-.04-.14-.09-.14-.05 0-.06.07-.03.16.03.08.03.13-.01.1a.537.537 0 01-.1-.26c-.04-.21-.27-.53-.76-1.08-.15-.17-.28-.37-.28-.42 0-.06-.06-.12-.14-.12-.07 0-.14-.04-.14-.09 0-.05-.05-.09-.1-.09-.12 0-.02.35.15.55.19.21.15.38-.05.32-.14-.04-.18 0-.18.13 0 .09-.04.17-.09.17-.05 0-.09-.18-.09-.4 0-.38-.12-.59-.25-.46-.03.03 0 .09.07.14.08.05.09.09.03.09-.05 0-.12.11-.14.25-.04.25-.05.25-.22-.22a.602.602 0 01-.04-.23c0-.04-.05-.09-.13-.12-.07-.04-.14-.09-.14-.13 0-.05-.11-.2-.24-.34-.41-.43-.64-.79-.8-1.23-.05-.16-.06-.16-.1-.02-.05.18.24.96.36.96.04 0 .06.05.06.13 0 .07.05.24.13.39.07.14.18.39.24.56.06.16.2.42.31.58.11.16.22.41.25.58.03.15.2.58.37.94.17.36.35.84.41 1.05.05.22.14.48.2.58.2.39.23.49.59 1.67.41 1.33.71 2.71 1.02 4.64.18 1.12.22 1.72.27 5.26.04 2.2.11 4.73.16 5.63.06.89.08 1.99.05 2.43-.09 1.37-.41 3.67-.55 3.95-.07.14-.13.31-.13.36 0 .19-.62.77-1.01.96-.22.1-.57.27-.78.39-.22.11-.5.19-.61.16a.708.708 0 00-.36.03c-.14.06-.54.13-1.08.16-.1.01-.17.05-.14.1.04.05-.11.05-.31.02-.28-.04-.38-.03-.38.05s-.03.07-.09-.02c-.08-.12-.1-.12-.18 0-.05.09-.25.14-.65.14-.31.01-.76.08-1 .16-.23.08-.68.16-.99.18-.31.02-.63.06-.72.1-.1.05-.22.01-.33-.09-.15-.14-.2-.14-.43-.02-.16.08-.31.1-.39.05zm-14.42-10.45c-1.14-3.09-1.15-3.11-1.25-5.11-.08-1.52-.07-1.96.07-3.29.13-1.12.17-2.14.16-3.78-.01-2.59-.2-4.59-.76-8.23-.2-1.26-.42-2.72-.5-3.24-.45-3.03-.74-4.52-2.3-11.84-.16-.74-.32-1.39-.37-1.44-.05-.05-.29-.05-.65.02-.83.15-3.87.7-5.89 1.06-1.41.25-1.93.31-2.46.27-4.06-.29-6.06-.41-6.1-.37-.13.14.24.18 2.57.33 1.38.09 2.84.21 3.27.25.68.07.92.05 2.47-.23 3.66-.67 4.22-.75 4.67-.68.45.05.77.24.77.45 0 .06.05.12.09.12.05 0 .09.08.09.17 0 .1.06.23.14.31.07.07.18.34.23.61.05.26.16.52.23.58.07.05.11.14.08.19-.03.05.05.26.16.48.11.22.19.44.17.5-.02.05.04.12.13.14.14.03.13.05-.06.14l-.22.1h.26c.26.01.27.06.11.46-.04.08.02.22.13.33.21.22.23.39.07.39-.06 0-.04.06.06.14.1.07.18.2.18.28 0 .09.1.18.22.22.21.06.21.09.01.12-.17.02-.21.14-.05.2.08.04.18.02.22-.05.05-.08.08-.08.14 0 .04.06.04.14-.01.17-.1.06-.1.62 0 .85.05.11.14.14.24.11.12-.05.17-.01.17.09 0 .1-.05.14-.13.11-.09-.04-.12-.01-.08.08.03.06.1.13.17.13s.13.05.13.09c0 .05-.06.09-.14.09-.18 0-.17.05.05.35.14.19.18.35.15.58-.02.21 0 .32.06.32.11 0 .72 3.11.86 4.36.05.4.22 1.63.4 2.74.73 4.72.94 8.31.65 11.21-.16 1.64-.19 4.64-.05 5.52.09.54.68 2.35 1.38 4.24.53 1.43.51 1.39.62 1.28.07-.07-.08-.58-.58-1.93zm-44.72-8.76c.28-.22.68-.53.87-.7.2-.16.51-.4.7-.5.18-.11.33-.22.33-.24 0-.02-.1-.15-.22-.3l-.23-.25-.68.23c-.66.22-.69.24-.86.64-.09.22-.26.59-.39.84-.23.45-.29.69-.14.69.05 0 .32-.18.61-.41zm23.59-.43c-.25-.19-.53-.32-.53-.26 0 .08.33.27.49.28.05.01.06 0 .05-.02zm-14.94-2.35c-.16-.17-.32-.3-.34-.27-.05.05.45.58.56.58.05 0-.05-.14-.22-.31zm-8.49-1.6c.14-.22.4-.62.58-.9.22-.31.35-.63.35-.78 0-.16.06-.31.16-.36.23-.14-.01-.12-.35.04-.46.2-.59.33-.76.77-.09.22-.28.56-.41.75-.3.41-.31.48-.1.7.21.23.27.21.53-.22zm4.16-1.39c.11-.07.2-.19.2-.26 0-.12-.31-.5-.4-.5-.06 0-.5.79-.5.9 0 .14.41.05.7-.14zm-1.84-1.09c.5-.15.72-.3.48-.3-.22 0-1.13.36-1.2.47-.05.07-.01.08.1.04.1-.04.38-.13.62-.21zm63.01-6.69c-.09-.1-.18-.16-.21-.14-.06.05.16.31.28.31.05 0 .02-.08-.07-.18zm-.95-.91c-.2-.13-.3-.09-.17.05.06.07.15.11.2.08.05-.04.05-.09-.03-.14zm.36-.05c-.22-.28-.35-.41-.35-.33 0 .07.37.49.43.49.02 0-.02-.07-.08-.15zm-.81-.17c-.13-.16-.22-.1-.14.1.03.08.1.12.14.09.07-.05.06-.1-.01-.19zm-.55-1.04c-.02-.05-.09-.13-.14-.14-.06-.02-.09.02-.05.11.06.16.25.2.2.04zm-1.52-3.9c.43-1.05.6-1.38 1-1.8.44-.47 1.44-1.89 1.66-2.34.29-.62.46-.95 1.13-2.2 1.35-2.49 2.79-5.55 2.79-5.93 0-.1-.1-.15-.33-.17-.18-.01-.51-.13-.74-.26-.22-.13-.5-.27-.59-.32-.5-.25-.65-1.27-.27-1.85.22-.35.5-.52 1.26-.82.25-.09.76-.34 1.13-.54.37-.21.83-.44 1.01-.53.22-.1.34-.22.34-.33 0-.1.08-.47.19-.81.1-.35.19-.73.21-.86.05-.37.15-.63.26-.63.06 0 .4.08.76.17.36.09.68.14.7.12.05-.05-.87-.41-1.37-.53-.12-.03-.21-.08-.21-.13s-.06-.05-.14-.02c-.08.03-.23-.05-.38-.17-.14-.13-.35-.25-.48-.28-.13-.04-.32-.14-.44-.24-.12-.1-.28-.18-.38-.18-.09 0-.25-.09-.36-.2-.26-.27-.54-.41-.93-.49-.17-.03-.31-.09-.31-.13 0-.04-.17-.1-.38-.14-.51-.08-2.32-1.11-2.32-1.31 0-.05-.05-.08-.13-.08-.07 0-.27-.23-.45-.51l-.31-.52.02.41c.02.38 0 .41-.23.43-.27.04-1.58-.23-1.73-.35-.05-.04-.18-.05-.27-.05-.41.06-.86-.35-1.31-1.21-.58-1.1-.56-1.82.04-1.34.13.09.27.17.31.17.05 0 .14.05.19.13.07.08.22.11.5.07.25-.03.45 0 .54.07.1.08.17.08.25.02.08-.07.22-.07.43-.02.17.05.39.08.49.09 1.07.02 3.91.36 4.82.58.27.07.66.13.86.13.2.01.53.01.75.01.21.01.38-.04.38-.09 0-.05-.21-.09-.48-.09-.26 0-.69-.05-.96-.13-.27-.07-.82-.17-1.22-.23-.85-.12-1.39-.27-1.39-.37 0-.1-.68-.45-.75-.39-.03.04-.32-.04-.65-.14-.33-.11-.68-.17-.78-.14-.13.04-.16.02-.13-.05.05-.07-.04-.09-.28-.05-.71.09-1.2.12-1.2.06 0-.04-.25-.05-.57-.04-.46.03-.64-.01-1.03-.2-.25-.13-.5-.23-.54-.23-.05 0-.22-.12-.39-.27-.33-.3-.63-.88-.63-1.25 0-.13-.04-.29-.08-.36-.22-.36-.17.74.06 1.35.05.12.14.4.21.62.1.37.69 1.69.8 1.8.03.03.12.23.2.47.14.39.14.44.02.57-.08.07-.14.14-.15.14-.43.09-.68.08-.77-.04-.08-.09-.2-.12-.38-.08-.3.05-.74-.04-.68-.14.09-.14-.25-.17-1.49-.14-1.51.04-1.74-.05-1.83-.65-.04-.22-.08-.47-.11-.53-.07-.18-.21-.05-.21.19 0 .25-.2.34-.41.19-.18-.14-.49-.08-.64.12-.06.08-.12.11-.12.06s-.06-.02-.15.05c-.14.12-.14.1-.09-.21.05-.38-.05-.39-.46-.02-.24.23-.56.29-.56.1 0-.16-.32-.46-.43-.39-.1.05-.34-.22-.42-.5-.04-.12-.11-.27-.16-.33s-.06-.14-.03-.17.05-.01.05.05c0 .06.05.11.11.11.05 0 .02-.09-.08-.2-.11-.12-.25-.41-.32-.66l-.13-.45v.58c0 .5.04.63.25.92.14.18.32.48.41.68.08.19.23.55.34.79.51 1.13.63 1.46.82 2.25.01.05.05.15.07.22.04.07.1.31.14.54.05.22.25.94.46 1.61.2.67.36 1.31.36 1.44 0 .2.36 1.28 1.28 3.88.32.92 1.17 3.11 1.39 3.57.12.25.22.5.22.53 0 .03.14.37.32.75.33.7.47 1.04.67 1.67.05.2.18.52.27.72.1.2.18.42.2.5.02.07.05.15.08.18.08.06.44.87.44.98 0 .05.04.1.07.12.04.02.19.27.32.57.39.8 2.5 5.07 2.75 5.53l.22.41.06-.31c.03-.17.11-.43.16-.58zm7.16-12.56c.07-.12-.14-.12-.31 0-.11.07-.1.09.06.09.11 0 .22-.04.25-.09zm1.98-.68c.15-.06.21-.13.14-.13-.07 0-.25.05-.41.13-.14.06-.21.13-.14.13.07 0 .26-.05.41-.13zm1.22-.47c.27-.12.58-.25.68-.3.1-.05.44-.19.76-.31.32-.13.52-.22.45-.22-.22-.02-.97.26-1.66.59-.34.16-.67.3-.73.3-.05 0-.18.06-.28.14-.16.13-.16.14.05.07.13-.04.45-.16.72-.28zm7.11-1.57c0-.22-.02-.25-.13-.15-.08.07-.09.14-.03.17.05.04.06.13.04.22-.04.08-.03.13.03.09.05-.03.09-.18.09-.32zm-3.44-.22c.22-.22.22-.33-.01-.14-.06.05-.19.15-.29.22-.11.07-.14.13-.06.14.06 0 .22-.1.36-.22zm2.62.03c-.03-.22.01-.34.11-.34.05 0 .07.07.04.17-.03.1-.02.2.03.22.14.08.31-.19.25-.37a.394.394 0 01.04-.3c.08-.12.11-.12.21 0 .05.07.2.13.31.11l.21-.03-.19-.25-.19-.25-.41.15c-.44.17-.78.59-.68.86.06.16.32.18.3.03zm-2.15-.33c0-.05.07-.11.16-.14.08-.04.33-.22.56-.41.22-.2.45-.36.51-.36s.26-.09.45-.2c.19-.1.42-.23.52-.29.33-.18.57-.44.52-.56-.03-.07 0-.13.05-.13s.1.06.1.14c0 .07.05.14.09.14.05 0 .09-.06.09-.14 0-.07.04-.14.09-.14.14 0 .99-.83.99-.96 0-.08-.2.04-.49.29l-.49.41-.8.01c-1.7.02-4.36-.37-4.92-.71-.05-.04-.28-.06-.5-.07-.41-.01-.47.03-1.06.57-.29.25-.19.36.14.15.2-.14.44-.17 1.06-.17.81-.01.81-.01 1.87.51 1.14.56 1.63.68 2.15.53.26-.07.37-.06.5.05.15.13.15.13 0 .08-.1-.03-.2.02-.26.13-.06.1-.17.18-.23.18s-.25.14-.41.3c-.16.15-.43.39-.58.51-.28.22-.35.36-.19.36.05 0 .09-.04.09-.08zm24.32-2.02c-.03-.14.17-.21.46-.16.04 0 .06-.05.06-.13 0-.16-.05-.16-.28-.05-.14.07-.17.06-.17-.04 0-.07.07-.15.16-.17.13-.04.13-.05.01-.05-.2-.01-.47.31-.5.58-.02.17.01.22.13.2.09-.02.14-.1.13-.19zm4.45-4.45c-.12-.11-.15.07-.08.4l.07.35.03-.35c.02-.19.01-.37-.02-.4zm-30.11-1.05c0-.12.19-.22.41-.22.06 0 .24.1.39.22.35.29.44.29.24-.01-.08-.14-.12-.26-.08-.3.05-.03.09-.14.11-.23.02-.1.09-.22.17-.29.12-.09.11-.12-.08-.16-.21-.05-2.36-.01-3.43.07-.28.03-.54.01-.57-.04-.03-.05-.09-.05-.14-.03-.05.04-.05-.02.01-.14.1-.18.08-.19-.44-.18-.58.01-.66.1-.25.35.13.07.39.25.58.39.34.24.39.24 1 .17.53-.06.67-.05.78.06.08.08.14.1.14.04 0-.05-.05-.13-.11-.14-.06-.03.01-.05.15-.05.15-.01.42-.04.6-.06l.33-.05-.05.66c-.04.66-.04.66.1.36.07-.16.14-.35.14-.41zm-2.7-4.01c0-.09.05-.17.13-.17.06 0 .19-.1.27-.22.13-.2.22-.22.62-.22.9.01 1.22-.01 1.28-.1.03-.05.37-.09.75-.1l.69-.01-.58-.12c-.32-.06-.7-.15-.86-.19l-.27-.06.36-.16c.35-.15.35-.16.12-.22a.634.634 0 00-.43.05c-.15.08-.22.08-.27.01-.04-.06-.18-.14-.32-.19-.2-.07-.13-.08.32-.05.42.03.65 0 .81-.1.22-.13.2-.14-.3-.08-.41.04-.53.02-.57-.09-.07-.18-.34-.17-.5.01-.08.1-.21.13-.41.1-.16-.03-.3-.02-.3.04 0 .05.07.08.15.08.08 0 .12.03.09.06-.04.03-.15.01-.27-.05-.22-.12-2.04-.19-2.04-.09 0 .05.07.07.15.07.08 0 .13.02.1.05-.05.05-.65-.06-1.03-.19-.14-.05-.14-.04-.04.05.28.2-.18.1-.6-.13-.23-.14-.48-.21-.57-.18-.12.04-.22-.02-.32-.18-.08-.13-.21-.22-.28-.22-.15 0-.39-.22-.39-.35 0-.05-.08-.1-.19-.1-.14 0-.17-.05-.14-.14.03-.08 0-.14-.09-.14-.07 0-.21-.12-.29-.27-.18-.31-.29-.34-.29-.07 0 .19-.01.19-.26-.06-.14-.15-.42-.41-.63-.57-.2-.16-.37-.36-.37-.44 0-.1-.05-.13-.21-.08-.14.04-.24-.01-.34-.14-.31-.46-.66-.65-.74-.41-.02.05-.03.04-.02-.05.02-.09-.01-.16-.05-.16-.18 0-.06-.18.13-.19.16-.01.14-.03-.07-.08-.14-.04-.22-.07-.15-.08.22-.02.05-.23-.17-.23-.16 0-.21-.05-.19-.17.03-.14-.01-.16-.16-.12-.13.04-.21 0-.24-.1-.02-.08-.08-.23-.12-.33-.05-.1-.11-.27-.14-.39-.04-.11-.1-.18-.14-.15-.05.04-.13-.05-.18-.17-.06-.14-.15-.2-.23-.17-.11.05-.13.01-.07-.14.03-.11.03-.2-.02-.2s-.15-.14-.25-.29c-.3-.52-.62-.88-.79-.88-.09 0-.18-.06-.21-.14-.04-.07-.12-.14-.19-.14-.08 0-.12-.05-.09-.12.04-.09-.01-.12-.15-.09-.13.03-.31-.05-.47-.18-.14-.13-.37-.24-.49-.26-.13-.02-.22-.07-.21-.13.01-.05-.04-.1-.1-.1-.17 0-.95-.38-1.22-.58-.29-.22-.33-.22-.5.12-.19.37-.18.42.08.52.13.05.22.14.22.2s.09.2.21.3c.27.23.78 1.14.78 1.39 0 .14.05.19.22.19.27 0 .38.24.14.31-.09.04-.17.08-.17.12 0 .04-.03.15-.06.27-.05.21-.05.21.38.14.4-.05.43-.05.37.1-.04.1-.02.2.05.23.14.09.02.26-.2.26-.11 0-.15.04-.12.1.04.06.2.08.44.04.36-.05.4-.04.42.15.02.14.1.22.23.23.21.04.27.25.09.31-.06.02-.03.02.08.01.24-.05.5.05.42.15-.03.05.14.08.39.09.61.01.86.1.94.34.07.21.06.21-.29.15-.21-.03-.36-.02-.36.03 0 .09.95.64 1.11.64.13 0 1.5.94 1.5 1.03 0 .05.09.16.21.27.11.1.26.32.32.49.15.37.27.41 1.36.57.85.12.97.16 2.52.94.69.35 1.77.68 2.24.69.39.01.45.04.58.29.07.15.16.35.19.44.06.21.23.12.23-.13zm10.78-.53c.24-.14.49-.27.54-.27.09 0 .74-.28 1.91-.84.85-.41 1.62-1.03 1.62-1.32 0-.08.04-.18.08-.22.05-.05.12-.27.14-.5.05-.4.05-.4-.08-.18-.07.13-.14.32-.14.45 0 .39-.75 1.06-1.1 1.01-.09-.02-.16.02-.16.06 0 .05-.14.1-.29.09-.46-.01-1.24.08-1.56.19-.27.09-.63.15-1.13.22-.13.01-.31.07-.42.13a.89.89 0 01-.34.11c-.08 0-.13.03-.11.07.03.04-.06.07-.19.08-.14.01-.43.03-.67.05-.24.02-.43.05-.43.1 0 .04-.11.06-.24.07-.22 0-.22.01-.07.07.15.06.14.08-.14.13-.17.03-.5.09-.72.14-.22.05-1.05.1-1.85.11l-1.44.01.54.13c.33.08 1.4.15 2.85.2 1.27.04 2.34.1 2.38.14.14.14.59.05 1.01-.21zm-32.72-.28c-.05-.05-.06.03-.04.21.04.25.05.26.08.08.02-.12 0-.24-.05-.29zm24.89-1.41c.02-.06-.03-.11-.11-.11s-.14.06-.14.14c0 .15.2.13.25-.04zm-25.63-.34c-.16-.19-.22-.09-.07.14.06.11.13.15.14.1.02-.05-.02-.15-.07-.23zm9.77-4.27c-.24-.11-.31-.11-.31 0 0 .05.11.09.25.08.22 0 .22-.01.06-.08zm31.47-.74c-.08-.08-.11-.06-.11.11 0 .17.03.19.11.11s.08-.14 0-.22zm-17.06-.15c-.03-.04.21-.1.51-.14.31-.03.78-.13 1.05-.22.47-.14.5-.17.5-.44 0-.15-.02-.3-.05-.32-.03-.02-.22-.02-.42.01-.3.03-.39.07-.39.2 0 .1-.04.19-.08.22-.14.07-.22-.14-.11-.25.13-.13.14-.6.01-.6-.05 0-.09.13-.09.27 0 .25-.18.41-.18.16-.01-.06-.09-.02-.19.1-.23.28-.53.44-.84.44-.18 0-.22-.04-.15-.1.05-.05.1-.25.1-.45 0-.31-.02-.34-.2-.29-.24.07-.43.29-.43.5 0 .16-.2.28-.38.22-.5-.18-.87-.04-.66.25.07.1.35.19.82.25.39.05.75.14.8.18.11.11.43.11.37 0zm7.05-.79c0-.22-.01-.23-.08-.07-.11.24-.11.31 0 .31.05 0 .09-.11.08-.24zm-7.01-.4c0-.1-.04-.15-.09-.13-.05.03-.09.14-.09.23 0 .1.05.15.09.13.05-.03.09-.14.09-.23zm2.52.14c0-.07.08-.14.18-.14.31 0 .72-.26.72-.45 0-.2-.14-.24-.21-.06-.04.08-.05.08-.05-.01-.01-.15.29-.26.33-.13.04.13.29.14.29.03 0-.05.16-.29.35-.53.25-.31.32-.48.26-.54-.14-.14.05-.34.5-.58.21-.1.44-.24.52-.31.09-.08.22-.12.28-.09.07.03.17.01.22-.04.05-.05.13-.05.2.05.09.11.14.1.33-.08.21-.19.24-.2.58-.08.32.12.38.11.58-.03.14-.11.22-.28.24-.5.03-.31.02-.34-.2-.32-.13.01-.38-.05-.56-.14-.36-.15-1.06-.2-1.06-.06 0 .15-.71.65-1.01.7-.16.03-.85.06-1.51.07-.67.01-1.41.05-1.66.08-.24.03-.59.07-.77.09-.18.02-.41.08-.51.14-.14.07-.28.06-.58-.05-.31-.11-.86-.14-2.64-.16-2.55-.04-3.04-.08-3.73-.38-.26-.12-.56-.22-.65-.22-.1 0-.17-.04-.17-.09 0-.11-1.01-.03-1.86.15-.36.07-.66.17-.66.22 0 .05.04.06.08.03.05-.03.11-.01.14.05.03.05.14.08.25.08.28-.02 1.28.08 1.84.17.3.05.66.21.97.41.27.19.54.33.59.33.05 0 .15.06.23.14.09.1.23.13.46.09.19-.04.41-.06.5-.07.08-.01.15-.05.16-.11 0-.05.04 0 .08.12.05.14.16.2.33.21.14.01.35.03.48.05.13.02.41.04.66.05.23.02.42.07.43.12 0 .05.05.14.1.2s.07.18.04.25c-.09.24.03.14.18-.14.14-.26.16-.28.51-.22.21.04.4.1.41.14.02.05.11.09.2.09.1 0 .18.08.21.21l.04.2.07-.2c.04-.12.1-.21.14-.21.12 0 .26.42.21.62-.03.12-.01.19.06.19.08 0 .1-.1.05-.36-.04-.22-.02-.36.04-.36.05 0 .09.08.09.18 0 .1.05.18.1.18.07 0 .08.04 0 .12-.05.07-.07.15-.05.18.13.13.22-.05.22-.41 0-.34.01-.35.14-.19.07.1.14.13.14.06 0-.19.27-.14.27.05 0 .22.09.46.18.46.04 0 .09-.16.13-.35.03-.2.1-.37.16-.39.16-.05 1.1.11 1.2.21.14.14.22.09.22-.14 0-.13.05-.22.09-.22.05 0 .09.05.09.1s.13.08.3.06c.28-.03.3-.01.25.31-.01.14-.74.6-.93.6-.08 0-.19.06-.25.14-.08.1-.14.11-.22.02-.06-.06-.14-.17-.15-.23-.03-.08-.1-.05-.21.13-.09.13-.14.27-.1.3.03.04.09 0 .14-.07.07-.11.12-.12.26-.03.1.06.31.09.48.07.16-.03.23-.02.16.01-.3.14-.35.4-.09.4.1 0 .18-.06.18-.14zm-3.78-.31c0-.05.02-.22.05-.38.05-.3.05-.3-.08.05-.17.43-.16.41-.05.41.05 0 .09-.04.09-.08zm-.5-.25c.04-.08.02-.19-.04-.24-.06-.06-.09-.06-.09.01 0 .05-.03.16-.05.24-.03.08-.02.14.04.14.05 0 .12-.07.14-.15zm-.54-.08c.06-.16-.09-.4-.25-.4-.05 0-.05.04.03.08.07.05.11.16.07.27-.05.22.07.26.15.05zm2.74-4.64c.06-.17.08-.17.19-.05.17.21.38.18.74-.08.17-.14.38-.22.48-.19.11.03.18-.02.21-.13.05-.17.49-.32.66-.22.05.03.09.01.09-.04s.11-.1.23-.1c.14 0 .21-.04.17-.09-.04-.06.02-.08.17-.04.25.06.31-.04.13-.22-.1-.11-.09-.12.05-.06.09.03.22.01.29-.05.07-.05.22-.08.32-.05.12.03.29.01.39-.03.15-.06.15-.08.03-.08-.26-.01-.19-.14.22-.35.22-.12.43-.31.5-.47.07-.15.16-.25.21-.22.05.03.08-.02.08-.09 0-.16-.35-.27-.68-.22-.13.03-.22.01-.22-.04 0-.08-.37.08-.45.2-.09.13-.99.72-.99.66 0-.05-.05-.01-.09.07-.05.1-.16.14-.31.1-.16-.03-.22 0-.22.11s-.05.14-.22.1c-.66-.14-.72-.14-.58-.05.07.05.11.12.07.14-.09.09-2.06-.11-2.17-.22-.16-.16-.24-.12-.24.14 0 .18.03.22.1.14.16-.16.37.06.22.23-.07.1-.07.14.02.16.13.05.14.39.02.39-.16 0 .17.52.37.58.15.05.17.08.07.14-.1.06-.1.08-.01.08.06 0 .14-.08.18-.19zm-1.2-2.03a.485.485 0 00-.31-.13c-.11 0-.19-.04-.19-.08 0-.14-.88-.53-1.32-.6-.23-.04-.45-.09-.48-.14-.03-.04-.31-.09-.63-.11-.32-.03-.69-.07-.83-.11-.23-.06-.24-.05-.14.16.05.13.14.19.16.14.04-.05.12-.03.22.06.3.3.62.41 1.26.46.35.02.65.08.66.13.05.11.35.11.57-.01.12-.06.17-.06.17 0 0 .05.06.09.14.09.07 0 .24.13.37.28.22.26.25.27.35.13.1-.13.09-.18-.01-.28zm-28.26-1.16c0-.13-.03-.22-.06-.22-.04 0-.07.13-.07.29 0 .32.12.27.14-.06zm.68-.28c0-.13-.04-.21-.08-.18-.05.03-.06.14-.04.23.06.25.12.22.12-.05zm-1.36-4.86c.09-.08-.31-.03-.44.05-.1.07-.06.08.14.04.15-.04.29-.07.31-.09zm1-.22c.11-.06.1-.07-.05-.07-.1 0-.26.06-.36.14-.17.14-.17.14.05.08.13-.04.29-.1.36-.14zm.68-.17c.17-.07.17-.08-.02-.08-.11-.01-.22.04-.25.08-.06.11.02.11.27 0zm21.72-3.9c.49-.14.62-.13.27.04-.19.08-.19.08.04.04.14-.03.33 0 .43.06.16.1.21.09.3-.03.14-.18.68-.47.94-.5.32-.05.69-.1.74-.12.03-.01-.04-.05-.14-.09-.17-.07-.17-.08.03-.08.25-.01.74-.25.74-.37 0-.05-.05-.14-.12-.2-.07-.06-.11-.16-.09-.22.03-.06-.15-.13-.49-.16-.64-.08-.79-.15-.81-.4-.01-.15.04-.19.27-.19.16 0 .47-.08.68-.18.22-.1.5-.18.63-.18.26 0 .94.41.86.53-.03.05.05.11.18.14.22.05.32.23.14.23-.05 0-.09.05-.09.09 0 .19.14.07.39-.32.14-.22.24-.44.24-.5 0-.05.05-.08.1-.08.12 0 .01-.93-.12-.97-.05-.02-.04-.08.02-.15.07-.08.03-.15-.15-.27-.32-.22-.45-.31-.7-.57-.12-.12-.25-.19-.3-.16-.05.03-.14-.01-.2-.08s-.17-.14-.24-.14c-.07 0-.12-.06-.1-.15.02-.09.1-.15.18-.14.08.01.17-.02.21-.07.03-.05.14-.09.23-.09.1 0 .17-.06.17-.14 0-.09-.05-.13-.14-.09-.07.03-.14.01-.14-.04 0-.15.35-.1.44.06.11.21.2.12.14-.13-.04-.13-.15-.22-.31-.25-.14-.04-.26-.1-.26-.15 0-.05.06-.07.14-.04.07.03.14.01.14-.04s-.05-.09-.09-.09c-.05 0-.18-.08-.28-.17-.21-.19-.79-.38-1.23-.39-.22-.01-.29-.05-.25-.14.05-.1-.02-.13-.24-.12-.72.05-1.28 0-1.14-.09.12-.08.12-.1 0-.18a.44.44 0 00-.3-.05c-.09.03-.33-.02-.54-.09-.21-.07-.42-.11-.49-.09-.06.03-.14.01-.17-.05-.03-.05-.11-.07-.17-.05-.06.02-.16-.01-.22-.06-.14-.14-.45-.16-.91-.05-.48.12-.68.25-.54.34.17.11-.36.26-.97.3-.45.02-.55 0-.51-.11.04-.09-.01-.11-.2-.08-.14.03-.5.02-.79-.02-.51-.06-.52-.06-.14-.08.22 0 .55-.05.72-.09.17-.05.58-.11.89-.14.32-.03.61-.08.66-.13.1-.1-1.3-.04-1.68.07-.14.05-.68.14-1.2.23-.8.14-.91.18-.77.28.09.06.29.12.44.12.15 0 .31.04.37.09.05.05.37.11.71.13.77.05 1.14.14 1.07.24-.03.05.06.08.21.08.41 0 .66.1.66.25 0 .07.03.11.05.08.04-.03.14-.01.24.05.18.09.16.11-.19.22-.22.06-.83.14-1.36.16-.54.03-1.03.07-1.1.09-.07.03-.24.06-.4.08-.71.11-.94.18-.94.3 0 .07-.07.13-.17.13a.4.4 0 00-.28.14c-.06.07-.14.11-.19.08-.05-.03-.08.02-.08.09 0 .09-.16.17-.53.24-.49.09-.53.12-.43.27.13.21.74.3 1.85.28.7-.02.92.01 1.21.16.2.11.58.24.86.31.32.08.41.13.26.13-.14.01-.25.05-.25.1 0 .12.51.12.56-.01.02-.06.16-.05.43.05 1.04.38 1.63.41 2.08.11.38-.26.88-.92.95-1.24.06-.32.14-.32.46-.04.14.13.33.25.44.28.41.11.65.86.32.97-.09.04-.33.15-.55.27l-.39.22.41.05c.23.04.41.1.41.14 0 .05-.12.17-.27.29-.15.13-.27.31-.27.41 0 .11-.07.23-.15.28-.1.05-.15.21-.15.42-.01.26-.05.35-.17.37-.09.01-.29.12-.45.23-.35.27-.57.36-.89.4-.46.05-.51.06-.48.13.02.04.16.05.31.02.16-.03.27 0 .27.06 0 .14.78.07 1.42-.11zm-.38-1.02a.817.817 0 01-.05-.22c0-.05-.04-.08-.08-.08-.05 0-.07.32-.02.43.05.1.2-.02.15-.13zm-2.62-1.93c-.03-.05-.12-.09-.19-.09s-.13.05-.13.09c0 .05.08.09.19.09.1 0 .15-.04.13-.09zm-13.46-2.76c-.1-.27-.68-1.06-.59-.81.04.08.02.15-.02.15-.16 0-.04.27.26.62.34.39.5.41.35.04zm-.3-2.75c.11-.68.12-.92.04-1.01a.408.408 0 01-.05-.31c.04-.13-.02-.29-.17-.49-.27-.35-.29-.44-.08-.36.12.05.14.02.09-.1-.04-.09-.01-.17.07-.21.09-.03.12-.11.09-.22-.05-.13-.01-.17.13-.17.1 0 .21-.05.23-.1.05-.06-.04-.07-.25-.04-.28.05-.34.03-.52-.22-.14-.2-.25-.26-.37-.22-.12.04-.14.01-.11-.08.03-.07.01-.16-.05-.2-.06-.04-.1.05-.1.25 0 .24.05.32.19.36l.19.05-.19.26c-.1.15-.19.31-.19.37 0 .26-.27.05-.43-.35-.22-.52-.38-.57-.66-.15-.12.15-.24.31-.28.31-.12.05-.08.45.05.5.07.04.06.05-.03.05-.28-.02-.36.01-.36.14 0 .07-.05.14-.1.16-.24.08-.06 1.02.25 1.3.11.11.21.23.21.29 0 .1.72.73.84.73.05 0 .25.14.45.29.21.16.44.28.53.27.14-.03.16.04.17.31v.34l.14-.45c.07-.24.19-.85.27-1.33zm11.3.87c.08-.07.21-.11.28-.08.07.03.24-.05.4-.18.24-.21.24-.22.07-.22-.11 0-.24.05-.31.13-.05.07-.15.12-.22.09-.06-.03-.24.02-.4.09-.15.08-.3.14-.32.14-.12-.02-.58.12-.58.17 0 .12.94 0 1.09-.13zm1.43-.31c0-.04-.11-.05-.23-.02-.15.03-.2.06-.12.11.12.08.35.02.35-.09zm1.02-.1c-.05-.04-.22-.04-.39.01l-.31.08.39-.02c.21 0 .35-.04.31-.07zm25.79-.18a.524.524 0 00-.26-.08c-.11.01-.1.04.04.14.09.07.21.11.26.07.05-.03.03-.08-.04-.13zm-40.63-3.11c-.07-.3-.11-.35-.18-.27-.08.08.05.51.14.51.05 0 .07-.1.04-.24zm-2.47-.21c0-.08.19-.52.65-1.53.57-1.25.55-1.16.38-1.75-.15-.49-.58-1.14-.58-.88 0 .06-.06.09-.14.05-.15-.05-.15.03.04 1.46.06.44.06.65-.01.69-.05.03-.14.3-.17.58-.05.29-.1.68-.13.86-.04.18-.09.36-.14.39-.11.06-.1.22.01.22.05 0 .09-.04.09-.09zm41.85-.94c0-.07-.06-.14-.14-.14-.14 0-.18.11-.07.21.1.11.21.07.21-.07zm-39.92-1.43c-.06-.17-.22-.2-.19-.03.02.11.17.25.22.21.02-.02.01-.1-.03-.18zm39.92-.95c0-.12-.41-.22-.56-.13-.08.05-.02.1.2.14.17.04.32.06.34.07.01 0 .02-.03.02-.08zm1.26-3.68c0-.11-.19-.17-.33-.12-.2.07-.13.2.11.2.13 0 .22-.04.22-.08zm-33.71-1.98c.14-.16.14-.16-.08-.13-.22.05-.28.13-.16.23.08.08.07.09.24-.11zm.25-1.54c.2-.18.14-.23-.14-.13-.08.03-.14.11-.14.18 0 .17.06.16.29-.05zm21.13-5.17c0-.06-.07-.14-.17-.17-.13-.03-.15 0-.13.13.05.2.3.23.3.05zm-.09-.63c0-.06-.06-.12-.14-.12-.15 0-.15 0-.08.19.06.16.22.11.22-.07zm-19.17-.59c.11-.07.08-.09-.12-.09-.14 0-.23.04-.2.09.07.11.14.11.31 0z"/><path d="M100.867 86.604c0-.05.05-.09.13-.09.07 0 .16.05.19.09.03.05-.03.09-.13.09-.11 0-.19-.04-.19-.09zM96.527 75.274c.11-.06.56-.04.56.05 0 .02-.15.04-.33.04-.22 0-.3-.03-.22-.08zM84.357 70.534c-.09-.24-.06-.32.12-.26.1.03.2.01.23-.05.03-.05.1-.07.14-.05.11.07.11.41-.01.41a.09.09 0 01-.09-.09.09.09 0 00-.09-.09c-.05 0-.09.06-.09.14 0 .18-.14.17-.22-.01zM83.317 69.544c0-.2.02-.22.14-.13.11.09.12.14.04.23-.14.18-.17.16-.17-.11zM96.087 68.384c-.04-.27-.03-.37.05-.42.14-.11.22-.08.22.05 0 .14-.26.5-.28.38zM90.067 49.664c.06-.07.2-.13.31-.13.18.02.18.02-.02.05-.11.02-.18.08-.15.13.04.05-.01.08-.1.08-.12 0-.13-.03-.04-.14zM86.167 46.034c-.24-.25-.24-.26-.07-.41.21-.19.33-.14.4.14.02.12.07.28.11.37.1.24-.16.19-.43-.1zM87.047 45.554c-.03-.05-.01-.14.05-.2.07-.07.1-.05.1.1 0 .22-.05.25-.14.1zM88.807 45.434c0-.09.08-.14.19-.14.22 0 .19.21-.04.25-.09.02-.15-.03-.15-.11zM93.167 44.884c-.16-.14-.16-.14.03-.05.16.08.22.06.33-.1.08-.11.14-.16.14-.11s-.07.16-.16.24c-.15.14-.18.14-.34.01zM72.907 41.314c-.15-.21-.4-.8-.37-.9.02-.05.16.13.32.38.18.28.26.51.22.56-.05.05-.12.04-.17-.04zM73.417 40.884c0-.05.06-.09.14-.09.07 0 .14.05.14.09 0 .05-.06.09-.14.09-.07 0-.14-.04-.14-.09zM72.977 39.994c-.22-.21-.34-.38-.29-.41.05-.03.1-.01.1.04s.08.1.18.1c.1 0 .18.05.18.1s.05.08.13.05c.09-.04.14.04.16.22.03.14.02.26-.02.26s-.23-.16-.44-.35zM73.417 39.274c0-.07-.05-.1-.14-.06-.09.04-.13.01-.11-.05.06-.17.22-.18.29-.02.04.08.04.17.01.2s-.05 0-.05-.06zM92.197 138.444c.03-.27.06-.51.08-.53.07-.08.02.68-.05.85-.05.11-.05-.01-.03-.31zM113.327 138.354c-.792-.1-2.392-.19-3.19-1.17-.073-.426-.58-.927-.188-.888-.991-.493-1.185-1.28-1.47-1.75-.78-.556-1.062-1.766-1.342-2.602.22-.21-.552-1.584-.419-2.468-.434-1.382-.401-2.865-.308-4.04-.062-.499.585-1.057-.323-1.572.575-.543.755-.533.435-.806.609-.513.085-.766.562-.915-.828-.19.565-.193.044-1.045.242-.124-.132-1.14.52-1.544-.535-.217.734-.91.35-1.8.41.114.75-2.011 1.06-1.99.326-1.448.852-2.625 1.23-4.27.604-.697.283-1.534 1.04-2.55.043-.808.97-1.951 1.054-2.948.567-1.167.657-2.446 1.124-3.65.438-1.644 1.017-3.21 1.259-4.823.728-1.263.75-2.61 1.125-4.026.661-1.686.486-3.558.897-5.272.46-1.704 3.813.681 2.67-.7-1.3-.462 2.484-.558 2.456-.379-.677.41-3.467.199-1.296.658 1.114 1.155 3.567-.11 5.063.662 1.463.224.62 1.983.973 2.877-.238.993-.263 1.242-.38 1.93.444.126-.112 2.464-.216 2.641.13.039.403 1.953.168 2.362-.526-.332-.045.616-.388.788-.22.414.607.713-.205.783.988.577.212 1.568.325 2.487-.717.698-.452 1.618-.53 2.1-.05.756-.18 2.179-.406 3.315-.457.605.263 2.75-.541 1.547.035 1.524-.302 2.201-.213 3.108-.235.742.586.424-.335.843.78.397-.796.584-.166 1.45-.887.855-.171.892.277.69-.521.752-1.21 1.805-1.186 2.347.913.045 2.475-3.209 1.924-1.056-.599 1.687-1.92 3.001-2.784 4.486-.395-.013-.433 1.817-1.059 1.057-.292.584-.372.882-1.012.737.816.157-.779 1.276-.449 1.886-.691.208-.865 2.153-.29 1.33-.523.489-.612 1.12-.674 1.728-.694.138-.24 2.645-1.166 2.492.958.569.338.388-.149.37.425.719-.833 1.9-.445 3.002-.39.761.31 1.1-.272 1.906-.39.769-.37 1.21-.764 1.342-.55.743-1.325 1.436-2.56 1.53.091-.071.436-.018.17-.19zm-6.04-7.35c-.315-.469-.372.312 0 0zm14.18-9.43c-.232-.484-.176.465 0 0zm.32-2.68c.661-.717-.906.332 0 0zm.92-.87c.193-.599-.655.594 0 0zm.43-2.08c.223-.95-.428.915-.036.31zm2.47-13.9c-.192-.965-.329 1.19 0 0zM51.277 129.444c0-.05.11-.09.23-.09.13 0 .21.04.17.09-.03.05-.14.09-.23.09s-.17-.04-.17-.09zM38.627 128.194c-.41-.22-.54-.23-1.72-.25-1.09-.01-1.43-.05-2.34-.28-.59-.15-1.51-.36-2.06-.47-.54-.11-1.08-.24-1.19-.29a.793.793 0 00-.4-.05c-.22.05-1.1-.41-1.74-.92-.31-.25-.55-.32-.95-.3-.5.03-2.09.01-2.4-.04-.58-.08-.63-.22-.21-.56.19-.16.37-.29.41-.29.09 0 .81-.48.92-.62.09-.1.09-.16.01-.26-.09-.11-.05-.12.3-.07.22.04.8.08 1.3.1 1.18.05 1.85.17 2.61.46.35.13.88.31 1.19.4.67.19 1.77.61 2.92 1.12.18.08.39.14.46.14s.52.2 1 .44 1.07.51 1.32.6c.27.1.68.37.97.62.28.25.61.52.73.6.22.15.22.15-.22.14-.3-.01-.6-.09-.9-.24z"/><path d="M119.827 125.874c-.11-.1-.07-.21.07-.21.07 0 .14.06.14.14 0 .14-.11.18-.21.07zM52.267 124.764c-.1-.07-.06-.08.14-.04.33.07.41.13.17.13a.85.85 0 01-.31-.09zM120.727 124.064c.01-.07.03-.14.03-.16 0-.02.06-.04.14-.04.07 0 .14.05.14.09 0 .05-.05.09-.13.09-.07 0-.14.03-.17.07-.02.04-.02.01 0-.05zM120.757 123.404c0-.06-.15-.08-.42-.05-.24.02-.35.02-.26 0 .1-.03.26-.1.37-.17.17-.12.22-.12.31.01.06.07.19.14.28.14.1 0 .17.05.17.09 0 .05-.1.09-.22.09-.13 0-.22-.05-.22-.1zM123.637 114.954l-.22-.07.25-.01c.14-.01.24.04.24.08 0 .05-.01.09-.02.08-.02-.01-.13-.05-.25-.08zM90.597 114.324c-.14-.15-.26-.34-.29-.42-.02-.09-.07-.22-.1-.31-.09-.21.32-.27.56-.09.14.12.38.76.38 1.03 0 .15-.35.01-.55-.22zM104.467 112.384c0-.14.04-.22.09-.18.05.03.09.11.09.18 0 .07-.04.15-.09.18-.05.04-.09-.05-.09-.18zM124.807 110.404c0-.13.04-.21.09-.17.05.03.09.14.09.23s-.04.17-.09.17c-.05 0-.09-.11-.09-.23zM120.867 87.954c-.06-.1-.08-.18-.04-.18.09 0 .29.2.29.29 0 .14-.14.07-.25-.11zM121.417 87.974c-.07-.05.02-.14.25-.27.2-.12.35-.16.35-.1 0 .05-.08.12-.18.14-.1.03-.18.11-.18.17 0 .14-.08.16-.24.05zM122.967 87.774c.03-.05.14-.09.23-.09s.17.05.17.09c0 .05-.11.09-.23.09-.13 0-.21-.04-.17-.09zM118.647 87.354c-.08-.08-.06-.3.03-.3.11 0 .2.25.11.31-.05.03-.1.03-.14-.01zM123.947 87.334c-.22-.05-.17-.07.31-.12.32-.04.68-.09.79-.13.11-.03.2-.02.2.04 0 .05-.17.11-.38.14-.22.02-.45.06-.52.09-.07.02-.25.02-.41-.02zM117.067 87.184c0-.14.3-.58.46-.68.29-.15.31-.04.04.31-.21.29-.5.5-.5.37zM127.467 86.334c.03-.49.09-1 .14-1.13.05-.14.06-.28.04-.32-.03-.05-.01-.14.05-.21.05-.06.11-.26.12-.44.02-.18.05-.33.1-.33.04 0 .06-.06.06-.14 0-.08.05-.13.12-.1.13.05.11.94-.02 1.1-.15.18-.22 1.54-.09 1.89.11.31.11.34-.05.46-.09.07-.24.13-.33.13-.15 0-.16-.06-.12-.9zM124.497 86.694c-.03-.05.03-.09.14-.09.11 0 .16.05.14.09-.03.05-.09.09-.14.09-.05 0-.11-.04-.14-.09z"/><path d="M128.137 86.454c0-.05.05-.13.1-.18.07-.07.07-.15 0-.28-.12-.22-.12-.8-.01-1.05.05-.13.08-.01.08.41-.01.32.01.7.03.85.02.15-.02.28-.08.3-.06.03-.12.01-.12-.04zM116.517 86.054c.14-.05.25-.05.31.01.06.06-.01.09-.22.08-.3 0-.31-.01-.1-.09zM126.137 85.734c-.09-.02-.16-.08-.16-.13 0-.13.14-.1.27.05.06.07.1.13.08.13-.02-.01-.11-.03-.19-.05zM112.807 85.304c-.17-.18-.24-.37-.29-.79-.04-.3-.11-.62-.16-.71-.12-.19-.05-.28.15-.2.1.04.14.16.14.4 0 .2.11.56.27.86.14.29.27.56.27.6 0 .13-.16.06-.39-.16zM129.037 84.144c0-.22-.25-.69-.36-.69-.05 0-.17-.08-.26-.17-.17-.17-.17-.18 0-.45.09-.15.21-.28.25-.28.18 0 .6 1.51.45 1.66-.05.05-.08.02-.08-.07zM128.877 82.434a.238.238 0 01-.03-.23c.06-.09.09-.07.14.07.07.24.02.32-.12.16zM102.307 71.424c0-.14.17-.33.23-.28.03.04-.01.13-.09.21-.08.08-.14.12-.14.07zM105.777 68.834c-.03-.07-.2-.14-.39-.15l-.34-.03.29-.11c.24-.09.31-.08.42.03.07.07.2.13.27.13.21 0 .18.15-.03.21-.1.03-.2-.01-.22-.07zM106.137 68.534c-.15-.02-.27-.1-.3-.21-.03-.09-.13-.17-.22-.17-.21 0-.32-.18-.17-.27.09-.05.08-.08-.01-.12-.07-.03-.04-.05.08-.05.12-.01.18.03.15.08s.01.09.09.09.12-.05.08-.1c-.04-.06.01-.06.14.01.11.05.22.08.25.05s.01-.05-.05-.05c-.05 0-.12-.05-.14-.13-.04-.09 0-.11.13-.08.17.05.25-.11.09-.17-.05-.01-.06-.14-.04-.27.04-.18.13-.27.35-.34.16-.05.32-.18.35-.28.04-.09.09-.17.14-.17.05 0 .19-.1.32-.22.38-.35.48-.31 1.03.41.38.49.48.75.49 1.19.01.32-.04.47-.19.6-.11.11-.22.15-.24.12-.05-.07-.19-.07-1 .02-.9.1-1.07.11-1.34.07zM117.387 67.714c-.03-.05.01-.11.09-.14.18-.07.26-.01.17.12-.07.12-.2.13-.26.02zM115.237 67.564c-.04-.04-.02-.12.03-.17.07-.08.05-.13-.05-.17-.07-.03-.14-.09-.14-.14 0-.06.05-.06.16-.01.08.05.22.11.31.14.15.05.22.32.07.32-.05 0-.14.02-.21.05-.07.03-.15.03-.19-.01zM116.107 67.254a.747.747 0 01-.27-.21.704.704 0 00-.29-.23c-.14-.08-.18-.14-.12-.21.12-.12.65.15.65.33 0 .07.04.14.08.14.05 0 .1.06.14.14.03.07.04.14.03.13-.01 0-.11-.04-.22-.08zM71.257 65.214c0-.11.05-.22.1-.25.15-.1.16-.02.04.22-.13.22-.13.22-.14.03zM68.787 59.364c.07-.42.13-.5.13-.18 0 .13.03.29.05.37.04.1.01.14-.09.14-.13 0-.14-.06-.09-.33zM70.267 58.934c0-.07.11-.25.23-.39l.23-.25-.14.24c-.08.14-.14.31-.14.39 0 .07-.04.14-.09.14-.05 0-.09-.05-.09-.13zM69.057 58.674c-.05-.14-.05-.28-.02-.31.1-.1.16.05.13.31l-.04.25zM74.637 56.564c-.12-.19-.6-2.16-.65-2.62-.05-.57.07-.9.4-1.04.11-.05.2-.12.2-.16 0-.04.05-.05.12 0 .13.08.17.09.5.11.22.01.24.04.27.48.02.25-.01.49-.06.51-.05.04-.05.21-.01.46.1.52.01 1.6-.15 1.75-.06.07-.12.16-.12.21 0 .09-.3.38-.39.38-.03 0-.07-.04-.1-.07zM69.397 53.454c-.44-.51-.54-2.49-.13-2.49.11 0 .38.95.31 1.12-.06.15.12.68.23.68.04 0 .14-.17.22-.38.09-.22.18-.34.21-.28.02.05-.12.43-.31.84l-.34.73-.2-.22zM74.617 51.054c0-.22.02-.31.04-.2.02.11.02.29 0 .41-.02.11-.04.02-.04-.21zM74.677 49.864c0-.17.02-.18.09-.07.12.17.12.27 0 .27-.05 0-.09-.09-.09-.2zM107.167 49.644c-.5-.07-.63-.13-.63-.24 0-.07-.09-.14-.2-.16-.17-.02-.22-.09-.23-.38-.03-.31-.07-.36-.39-.5-.45-.19-.44-.28.02-.28.34 0 .36.02.25.15-.12.14-.11.14.08.01.25-.17.53-.12.66.12.06.14.05.19-.05.22-.07.03-.11.09-.08.14.03.05-.02.08-.11.08-.12 0-.13.03-.05.13.08.09.25.11.69.07.44-.04.58-.02.56.07-.02.06.02.14.08.15.06.02.14-.06.17-.19.06-.28.11-.29.27-.07.11.14.12.14.13-.05 0-.27.1-.26.41.03l.26.24-.21.16c-.2.16-.22.16-.33.02-.12-.15-.12-.15-.13 0 0 .08-.05.15-.1.15s-.06.05-.04.09c.05.09-.55.11-1.03.03zM102.307 48.794c0-.19.37-.4.45-.26.04.06.12.08.17.05.05-.04.1 0 .1.08 0 .12-.05.14-.23.1-.14-.04-.29-.02-.36.05-.1.08-.13.07-.13-.02z"/><path d="M107.527 48.684c0-.06.05-.19.12-.29.16-.22.29-.03.15.22-.11.21-.27.24-.27.06zM107.517 47.984c-.05-.03.11-.29.36-.58s.46-.6.46-.68c0-.27.22-.18.47.18.17.25.12.58-.15.86-.12.13-.19.24-.17.26.06.05-.86.03-.96-.04zM106.497 46.194c.03-.05.12-.09.19-.09s.13.05.13.09c0 .05-.08.09-.19.09-.1 0-.15-.04-.13-.09zM115.537 41.994c0-.05.04-.13.08-.19.06-.1.08-.1.13.01.03.07.03.16 0 .19-.08.07-.21.06-.21-.01zM112.677 39.674c-.22-.11-.22-.26.01-.31.09-.02.15.03.15.11 0 .17.1.18.26.04.09-.1.11-.08.08.06-.04.21-.22.24-.5.1zM113.737 33.454c0-.13.03-.13.14-.04.07.06.14.13.14.14 0 .02-.06.04-.14.04-.07 0-.14-.06-.14-.14zM70.917 32.634c-.16-.29-.14-.46.04-.22.07.11.13.25.1.31-.02.06-.07.03-.14-.09zM117.457 31.974c0-.27.02-.39.04-.24.02.14.02.35 0 .5-.02.14-.04.02-.04-.25zM70.627 31.924c-.05-.13-.09-.27-.09-.31 0-.05-.03-.08-.07-.08-.04 0-.12-.08-.18-.18-.16-.26.04-.22.21.04.14.22.33.77.26.77-.02 0-.08-.11-.13-.23zM71.527 31.384c-.05-.14-.12-.31-.14-.38-.03-.07 0-.11.06-.09.11.04.28.62.21.69-.03.02-.08-.08-.14-.22zM69.797 31.074c-.08-.2-.12-.36-.07-.36.1 0 .18.13.27.45.11.39-.02.32-.2-.09zM71.347 30.584c0-.08-.05-.13-.09-.1-.05.03-.12-.02-.14-.11-.03-.09-.1-.25-.14-.36-.11-.22-.03-.56.1-.42.11.13.39 1.03.33 1.1-.03.03-.05-.02-.05-.11zM78.447 30.414c-.05-.45-.04-.6.07-.6.06 0 .12.05.12.13 0 .07.05.14.12.16.07.02.04.1-.09.22s-.22.15-.22.09zM117.637 29.564l-.01-.96.09.83c.05.46.05.89.01.97-.05.08-.08-.25-.09-.84zM77.917 30.124c-.11-.14-.05-.35.08-.27.11.06.19.41.1.41-.04 0-.12-.06-.18-.14zM69.197 29.594c-.19-.38-.34-.59-.48-.62-.23-.06-.34-.01-.34.17 0 .07-.04.13-.08.13-.12 0-.17-2.59-.06-2.85.07-.17.11-.19.22-.09.13.09.13.09.03-.05-.1-.13-.1-.2.02-.42.08-.14.14-.35.14-.45 0-.44.27-.65.28-.21.01.72.06 1.46.12 1.79.04.21.04.43 0 .5-.1.16-.04.79.11 1.08.19.36.15.43-.05.12-.27-.41-.22-.07.07.5.25.49.42.99.34.99-.03 0-.17-.26-.31-.58zM77.647 29.674c0-.07.06-.14.14-.14.07 0 .14.04.14.08 0 .05-.06.1-.14.14-.08.03-.14 0-.14-.08zM78.637 29.054c0-.07.05-.14.13-.14.07 0 .14.06.18.14.04.09-.01.14-.13.14-.1 0-.18-.06-.18-.14zM79.557 28.894c-.14-.14-.14-.25.03-.25.07 0 .14.08.14.18 0 .21-.02.22-.16.07zM69.567 28.514c-.05-.13-.09-.22-.07-.22.02 0 .1.1.18.22.08.13.12.22.07.22-.05 0-.13-.1-.18-.22zM117.727 28.154c0-.2.02-.27.04-.15.02.11.02.27 0 .36-.03.08-.05-.01-.04-.21zM74.027 28.314c-.09-.02-.14-.09-.1-.17.06-.18.18-.15.23.05.03.1.04.17.04.17-.01-.01-.09-.03-.17-.05zM73.187 27.974a.734.734 0 01-.02-.34c.03-.19.04-.18.14.08.11.29-.01.54-.12.26zM69.597 27.064c-.03-.08-.05-.26-.05-.39.01-.18.03-.15.08.12.07.39.06.51-.04.27zM73.007 26.834c-.04-.11-.02-.23.04-.29.07-.07.1-.02.1.19 0 .33-.05.37-.14.1zM70.477 26.434c-.05-.12-.07-.23-.03-.26.04-.03.1.06.13.19.08.31.04.35-.1.07zM77.557 25.854c.01-.14.24-.5.31-.44.02.02-.05.16-.14.31-.1.15-.17.21-.17.14zM73.327 25.434c0-.39.06-.37.14.05.03.17.01.29-.05.29-.05 0-.09-.14-.09-.33zM69.007 25.364c0-.14.16-.28.23-.21.06.06-.06.33-.15.33-.05 0-.08-.05-.08-.13zM102.057 25.214c.03-.07.16-.14.31-.15.3-.04.22.1-.14.21-.15.05-.2.04-.17-.05zM72.817 24.554c0-.24.02-.34.04-.2s.02.33 0 .45c-.02.11-.04 0-.04-.25zM68.837 23.854c.01-.63.03-.76.08-.5.04.19.05.45.04.58-.03.2-.02.2.05-.05.05-.16.12-.3.14-.3.11 0 .03.54-.09.67-.07.07-.11.2-.08.27.03.08.01.14-.05.14-.06 0-.1-.28-.09-.83zM69.407 24.454c-.15-.11-.16-.15-.06-.31.08-.14.09-.22.03-.3-.05-.06-.07-.14-.04-.17.14-.15.08-1.1-.07-1-.05.03-.08 0-.08-.05s.05-.1.09-.1c.05 0 .09-.06.09-.14 0-.14.18-.2.18-.06.01.04.03.56.06 1.17.03.6.04 1.1.02 1.1s-.12-.06-.22-.14zM73.237 24.464c0-.07.05-.14.09-.14.05 0 .09.06.09.14 0 .07-.04.14-.09.14-.05 0-.09-.06-.09-.14zM75.187 24.194c-.05-.14-.05-.28-.03-.31.07-.07.16.22.13.41-.03.12-.05.09-.1-.1zM77.387 24.244c-.06-.11-.19-.19-.28-.19-.13 0-.18-.06-.18-.19 0-.14.03-.17.12-.1.11.09.16.11.33.11.14 0 .3.37.2.47-.06.06-.13.03-.19-.1zM101.587 24.344c0-.09.2-.29.29-.29.11 0-.02.25-.16.31-.07.03-.13.02-.13-.02zM73.287 23.824c-.08-.22-.06-.56.04-.62.05-.04.09.11.09.35 0 .43-.04.5-.13.27zM75.037 23.704c0-.05-.03-.16-.05-.25-.05-.14-.05-.14.08.02.17.21.19.31.06.31-.05 0-.09-.04-.09-.08zM75.807 23.554c-.04-.13-.05-.25-.03-.28.03-.02.07.07.1.21.04.13.05.25.03.28-.03.02-.07-.07-.1-.21zM77.057 23.624c-.14-.1-.59-.92-.56-1.03.02-.05.19.16.38.47.32.53.38.69.18.56zM72.727 23.194c0-.24.02-.34.04-.2s.02.33 0 .45c-.02.11-.04 0-.04-.25zM117.707 22.594c-.01-.14-.08-.29-.18-.33-.14-.07-.17-.2-.17-.56-.01-.92.13-.91.3.03.08.48.14.93.11.99-.03.06-.05.01-.05-.13zM92.457 22.094c-.04-.16-.05-.32-.02-.35.1-.11.15.05.13.35l-.03.3zM92.867 22.184c-.06-.12-.09-.28-.07-.36.03-.12.06-.09.14.11.14.33.08.53-.07.25zM77.437 22.104c-.1-.09-.07-.66.03-.66.05 0 .09.16.09.36 0 .37-.02.41-.12.3zM71.757 21.394c-.04-.18-.05-.34-.03-.36.03-.03.07.1.1.29.04.18.05.34.03.36-.03.03-.07-.1-.1-.29zM101.677 21.434c.05-.1.15-.16.21-.14.06.02.18-.02.27-.1.1-.09.15-.1.15-.04 0 .06.07.11.16.11.08 0-.03.08-.24.18-.52.24-.68.23-.55-.01zM92.547 21.214c-.04-.13-.05-.26-.02-.28.03-.03.07.06.11.19.03.14.04.26.01.29-.02.03-.07-.06-.1-.2zM93.087 21.304c-.08-.21-.06-.32.03-.27.11.07.19.41.1.41-.04 0-.1-.06-.13-.14zM77.267 21.124c-.17-.23-.23-1.09-.07-.99.05.03.09.22.09.41 0 .2.05.44.1.55.14.25.06.27-.12.03zM83.807 21.264c-.03-.05-.13-.09-.21-.09-.08 0-.33-.14-.56-.32-.31-.26-.36-.31-.18-.27l.22.06-.2-.18c-.25-.22-.27-.31-.04-.19.1.05.2.16.22.25.03.09.25.28.5.42.42.25.56.41.37.41-.05 0-.12-.04-.14-.09zM84.897 21.084c-.09-.1-.13-.18-.07-.18.05 0 .16.08.25.18.09.1.13.18.07.18-.05 0-.16-.08-.25-.18zM77.577 20.904c0-.17.02-.24.05-.15.02.08.02.22 0 .31-.03.08-.05.01-.05-.16zM82.597 21.034c0-.07-.04-.14-.09-.14-.05 0-.09-.08-.09-.18 0-.1.05-.18.1-.18s.07.04.05.08c-.04.05-.02.1.03.12.12.05.22.43.11.43-.05 0-.1-.06-.1-.14zM72.637 20.764c0-.2.02-.27.04-.15.02.11.02.27 0 .36-.03.08-.05-.01-.04-.21zM101.667 20.934c.05-.09.14-.24.22-.34.13-.16.14-.16.14-.03 0 .17-.26.52-.39.52-.04 0-.03-.07.02-.15zM81.117 20.854c-.04-.09-.01-.13.05-.11.14.05.21.25.09.25-.05 0-.12-.06-.14-.14zM77.977 20.664c-.04-.03-.05-.2-.05-.38l.01-.32.07.36c.07.38.07.44-.03.34zM74.907 20.494c-.09-.22.01-.26.13-.05.05.11.06.19.01.19-.05 0-.11-.06-.14-.14zM84.307 20.494c-.18-.22-.05-.25.14-.05.09.1.12.18.07.18-.05 0-.14-.06-.21-.14zM117.137 20.484c-.04-.22-.03-.57.03-.57s.17.32.17.52c0 .12-.17.15-.2.05zM81.477 19.864c-.18-.17-.18-.22-.02-.16.07.03.15.11.18.18.06.16.01.16-.16-.02zM77.337 19.384c-.04-.05-.08-.41-.11-.79-.03-.39-.06-.81-.08-.94-.03-.19-.01-.23.09-.19.11.04.14-.04.14-.31 0-.2.05-.38.1-.4.05-.02.14-.41.2-.86.05-.46.14-.83.18-.83.09 0 .01 1.47-.13 2.2-.06.33-.05.47.03.52.09.05.08.07-.02.07-.14 0-.18.23-.18 1.05.01.43-.1.68-.22.49zM100.207 18.044c-.17-.19-.2-.38-.05-.38.13 0 .03-.44-.15-.64-.07-.07-.13-.18-.13-.22 0-.17.44-.94.5-.86.03.05.12.06.2.04.12-.05.14-.02.09.1-.04.09-.06.19-.06.22 0 .04-.05 0-.1-.07-.07-.1-.08-.06-.04.16.05.24.03.3-.15.37-.15.06-.17.09-.05.09.12.01.14.06.12.25-.03.13-.01.41.04.6.1.43.01.58-.21.34zM74.047 17.934c-.05-.11-.12-.42-.14-.7-.04-.56-.05-.57.25.46.12.39.05.53-.11.24zM97.387 16.814c0-.34.02-.48.04-.29.02.18.02.47 0 .63-.02.15-.04.01-.04-.34zM76.947 16.834c-.05-.26-.12-.62-.14-.79l-.05-.31.13.27c.12.27.28 1.3.21 1.3-.03 0-.09-.22-.14-.47zM72.577 16.994c-.04-.09-.05-.19-.02-.22.08-.08.15.05.12.22-.03.15-.04.15-.1-.01z"/><path d="M100.507 17.084c0-.12.45-.52.5-.47.04.04.02.06-.04.06s-.11.05-.11.1-.05.15-.13.22c-.14.13-.23.16-.23.08zM100.287 15.444c-.1-.24.04-.93.18-.93.07 0 .13.09.13.22s.04.24.08.27c.09.06-.14.59-.26.59-.04 0-.1-.07-.13-.15zM78.817 14.914c-.1-.24-.12-.46-.05-.38.07.07.22.61.17.61-.02 0-.08-.11-.13-.23zM100.127 14.544c-.04-.13 0-.22.07-.24.14-.05.14-.01.05.25-.06.17-.07.17-.12-.01zM100.637 14.204c-.04-.1 0-.22.09-.31.14-.14.15-.14.09.12-.08.34-.11.38-.18.19zM75.467 12.584c-.04-.14-.03-.31.01-.34.11-.11.17.13.1.39-.05.22-.05.22-.11-.05zM75.707 11.674c-.06-.17.06-.45.2-.45s.14.37 0 .5c-.12.09-.15.08-.2-.05zM77.737 9.444c0-.06.22-.22.5-.36.27-.14.5-.21.5-.17 0 .16-.3.47-.45.47-.09 0-.2.05-.22.09-.08.13-.31.11-.31-.03zM80.167 8.794c0-.05.06-.17.14-.27.07-.09.13-.13.13-.08s-.05.17-.13.26c-.07.1-.14.14-.14.09zM99.147 8.464c-.07-.17-.04-.61.05-.65.08-.03.12.06.1.31 0 .19-.04.35-.07.35-.05 0-.07-.01-.08-.02zM97.927 5.554c-.14-.14-.14-.22-.04-.22.07 0 .22.27.17.31-.02.02-.08-.03-.14-.1z"/></g><rect height="144.696" rx="20" ry="20" width="116.92" x="21.818" y="1.121" fill="#fff" fill-rule="evenodd" fill-opacity=".1"/></svg>
